<?xml version="1.0" encoding="UTF-8" standalone="no" ?>
<!DOCTYPE svg PUBLIC "-//W3C//DTD SVG 1.1//EN" "http://www.w3.org/Graphics/SVG/1.1/DTD/svg11.dtd">
<svg xmlns="http://www.w3.org/2000/svg" xmlns:xlink="http://www.w3.org/1999/xlink" version="1.1" width="1280" height="1024" viewBox="0 0 1280 1024" xml:space="preserve">
<desc>Created with Fabric.js 4.4.0</desc>
<defs>
</defs>
<g transform="matrix(1 0 0 1 640 512)" id="background-logo"  >
<rect style="stroke: none; stroke-width: 0; stroke-dasharray: none; stroke-linecap: butt; stroke-dashoffset: 0; stroke-linejoin: miter; stroke-miterlimit: 4; fill: rgb(255,255,255); fill-opacity: 0; fill-rule: nonzero; opacity: 1;"  paint-order="stroke"  x="-640" y="-512" rx="0" ry="0" width="1280" height="1024" />
</g>
<g transform="matrix(2.7144013341280884 0 0 2.7144013341280884 640.4904752553023 403.1725055516778)" id="logo-logo"  >
<g style=""  paint-order="stroke"   >
		<g transform="matrix(0.7190618781957164 0 0 0.7190618781957164 0 -2.842171e-14)"  >
<path style="stroke: none; stroke-width: 1; stroke-dasharray: none; stroke-linecap: butt; stroke-dashoffset: 0; stroke-linejoin: miter; stroke-miterlimit: 4; fill: rgb(160,255,103); fill-rule: nonzero; opacity: 1;"  paint-order="stroke"  transform=" translate(-450.46790473302235, -585.0067866374663)" d="M 575.284668 589.1680908 C 572.7037354 586.5872191999999 568.503479 586.5872191999999 565.9225464 589.1680908 C 565.2154541 589.8752440999999 564.7063598999999 590.7096557 564.3881226 591.5935058 L 517.0685424999999 591.5935058 L 517.0614623999999 534.8906249 L 525.4619140999998 534.8906249 L 525.4619140999998 588.5883178 L 529.9802856999999 588.5388183 L 529.9732055999998 534.8906249 L 539.2504882999998 534.8906249 L 539.2504882999998 568.9448852 C 538.5292358999998 569.2560424000001 537.8504028999998 569.7085571 537.2564086999998 570.3025512 C 534.6754760999999 572.8834228000001 534.6754760999999 577.0837402000001 537.2564086999998 579.6646117 C 539.8373412999998 582.2456054 544.0375976999999 582.2455443 546.6185302999999 579.6646117 C 549.1994628999998 577.0836791 549.1994628999998 572.8834838 546.6185302999999 570.3025512 C 545.7982787999998 569.4822997 544.8153686999999 568.9236450000001 543.7688598999998 568.6266479000001 L 543.7689208999998 530.3721923 L 507.82666019999976 530.3792724000001 C 503.83856209999976 526.1224365 499.40502929999974 522.3253173 494.60375979999975 519.0513915000001 L 494.60375979999975 500.07263170000016 C 495.56542969999975 499.76153550000015 496.4635009999997 499.23120100000017 497.22717289999974 498.4675292000002 C 499.8081054999997 495.8865966000002 499.8081054999997 491.6863402000002 497.22717289999974 489.10540760000015 C 494.64624029999976 486.5244750000001 490.44598389999976 486.5245360000001 487.8650512999997 489.10540760000015 C 485.28411869999974 491.68640130000017 485.2840575999997 495.88659660000013 487.8650512999997 498.4675292000002 C 488.5226440999997 499.12518300000016 489.2792358999997 499.6130370000002 490.0924682999997 499.9312133000002 L 490.0924072999997 517.2836303000001 L 460.9100952999997 517.2765502000001 L 460.9030151999997 508.8832397000001 L 478.0999145999997 508.8831787000001 L 478.1069946999997 481.8787842000001 C 478.9413452999997 481.5535279000001 479.7050171999997 481.0585327000001 480.3626709999997 480.4009400000001 C 482.9436035999997 477.8200074000001 482.9435425999997 473.6197510000001 480.3626709999997 471.0388184000001 C 477.78167729999967 468.4578858000001 473.5815430999997 468.4578858000001 471.00054939999967 471.0388184000001 C 468.4196167999997 473.6198121000001 468.4196167999997 477.8199463000001 471.00054939999967 480.4009400000001 C 471.7430420999997 481.1433716000001 472.62689219999965 481.6737061000001 473.58856209999965 481.9989625000001 L 473.58856209999965 504.3718263000001 L 460.9100952999996 504.3648073000001 L 460.91015629999964 469.9569704000001 C 461.79400639999966 469.6387941000001 462.62841799999967 469.1296389000001 463.33551029999967 468.4225466000001 C 465.91644289999965 465.84155290000007 465.91644289999965 461.6414187000001 463.3284301999997 459.05334490000007 C 460.7474975999997 456.47247330000005 456.54730229999967 456.4724123000001 453.9663696999997 459.05334490000007 C 451.38537599999967 461.6343386000001 451.3854370999997 465.83453390000005 453.9663086999997 468.4154665000001 C 454.6805420999997 469.1296389000001 455.5078125999997 469.63171410000007 456.39172369999966 469.9498903000001 L 456.39880379999965 517.2765505000001 L 399.6887817999997 517.2764895000001 L 399.6887817999997 508.8760378000001 L 453.4077148999997 508.88317890000013 L 453.4006347999997 504.5628054000001 L 453.4006347999997 504.36480740000013 L 399.6887817999997 504.3647464000001 L 399.6887817999997 495.0874637000001 L 433.7360229999997 495.0945438000001 C 434.0612792999997 495.8158573000001 434.5138549999997 496.4946903000001 435.1077880999997 497.08862340000013 C 437.68878179999973 499.6695560000001 441.8889159999997 499.6695560000001 444.46990969999973 497.08862340000013 C 447.05078129999976 494.50769080000015 447.0508422999997 490.30749550000013 444.46990969999973 487.72656290000015 C 441.8889159999997 485.1455692000001 437.68872069999975 485.14563030000016 435.1077880999997 487.72650190000013 C 434.2805175999997 488.55383340000014 433.7218627999997 489.53674360000014 433.4248656999997 490.5832524000001 L 395.17749019999974 490.5761723000001 L 395.1774291999997 527.2042851000001 C 390.88531489999974 531.2984623000001 387.06695559999974 535.8522343000001 383.7859496999997 540.7736210000002 L 366.6597899999997 540.7736820000001 C 366.3557738999997 539.8190311000001 365.8184203999997 538.9140018000002 365.0617674999997 538.1573490000001 C 363.7748411999997 536.8704227000001 362.0778196999997 536.21991 360.3807371999997 536.21991 C 358.68365469999975 536.21991 356.9866331999997 536.8704227000001 355.69970689999974 538.1573490000001 C 353.11877429999976 540.7383427000001 353.1187131999997 544.9384769000001 355.69970689999974 547.5194706000001 C 358.2806394999997 550.1004032000001 362.48083479999974 550.1004032000001 365.0617673999997 547.5194706000001 C 365.7194211999997 546.8618778000001 366.20019509999975 546.0981449000001 366.5255124999997 545.2921146000001 L 383.8707883999997 545.2849735000001 L 383.8707883999997 574.4743656 L 375.4703977999997 574.4743656 L 375.4703977999997 557.2775883 L 348.47302229999974 557.2775273000001 C 348.14776599999976 556.4572758 347.65985089999975 555.6865239000001 346.99523909999976 555.0219121000001 C 344.41424539999974 552.4409184000001 340.2140500999998 552.4408574000001 337.6330564999998 555.0218511000002 C 335.0521238999998 557.6027837000001 335.05218489999976 561.8030401000002 337.6331174999998 564.3839727000002 C 340.21405009999984 566.9649053000002 344.4142453999998 566.9649053000002 346.9952390999998 564.3839727000002 C 347.74475079999985 563.6344610000002 348.26800519999983 562.7434698000002 348.58618149999984 561.7888799000002 L 370.95904529999984 561.7888799000002 L 370.95904529999984 574.4743657000002 L 336.55120839999984 574.4744267000002 C 336.22595209999986 573.5975346000002 335.7167967999998 572.7631840000003 335.0097044999998 572.0560917000003 C 332.42877189999984 569.4751591000003 328.2285765999998 569.4750980000002 325.6475828999998 572.0560307000003 C 323.0667112999998 574.6369633000003 323.0667112999998 578.8372197000003 325.6475828999998 581.4181523000003 C 328.2285765999998 583.9990849000003 332.4287718999998 583.9990849000003 335.0097044999998 581.4181523000003 C 335.7238768999998 580.7039799000003 336.2259520999998 579.8766484000004 336.5441893999998 578.9927983000003 L 383.87078849999983 578.9857182000003 L 383.87084949999985 635.6956791000002 L 375.47039779999983 635.6956791000002 L 375.4774778999998 582.0050663000002 L 375.3148191999998 582.0121464000002 L 370.95904529999984 582.0263066000002 L 370.95904529999984 635.6956792000002 L 361.68182359999986 635.6956792000002 L 361.68176259999984 601.6414189000002 C 362.41009509999986 601.3231816000002 363.08898919999984 600.8706669000002 363.68292229999986 600.2767338000002 C 366.26385489999984 597.6958012000002 366.2637938999999 593.4955448000002 363.68292229999986 590.9146733000002 C 361.10192859999984 588.3336796000002 356.90179439999986 588.3336796000002 354.32080069999984 590.9146733000002 C 351.7399290999998 593.4955449000003 351.73986809999985 597.6958012000002 354.32080069999984 600.2767338000002 C 355.1410521999998 601.0969853000003 356.12396229999985 601.6555790000002 357.17041009999986 601.9525150000002 L 357.1704710999999 640.2070316000002 L 393.1480711999999 640.2070316000002 C 393.3601683999999 640.4191898000001 393.5652464999999 640.6383670000001 393.7773436999999 640.8505253000002 C 397.40484609999993 644.4779667000001 401.3929442999999 647.7306523000002 405.6355589999999 650.5874027000002 L 405.6355589999999 669.9479984000002 C 404.6809080999999 670.2520145000002 403.7758177999999 670.7894291000002 403.0192259999999 671.5460209000001 C 400.4382933999999 674.1269535000001 400.4382933999999 678.3272099000002 403.0192259999999 680.9081425000002 C 405.6001585999999 683.4890751000002 409.8004149999999 683.4890751000002 412.3814085999999 680.9081425000002 C 414.9622801999999 678.3272099000002 414.9622801999999 674.1269535000001 412.38134759999986 671.5460209000001 C 411.7237547999999 670.8883671000001 410.96710199999984 670.4005131000001 410.15393059999985 670.0823368000001 L 410.15393059999985 652.7440800000002 L 439.3362425999999 652.7369999000001 L 439.3362425999999 661.1373905000002 L 422.1394041999999 661.1374515000001 L 422.1394041999999 688.1347660000001 C 421.3191526999999 688.4600223000001 420.5484007999999 688.9479374000001 419.8837278999999 689.6126102000002 C 417.3027952999999 692.1935428000002 417.3027952999999 696.3937992000002 419.8837278999999 698.9747318000002 C 422.46466049999987 701.5556644000002 426.66491689999987 701.5556034000002 429.24578839999987 698.9747318000002 C 431.8267820999999 696.3937381000002 431.8267820999999 692.1936039000002 429.24578839999987 689.6126102000002 C 428.49627669999984 688.8630985000002 427.6053464999999 688.3398441000002 426.65783669999985 688.0286869000001 L 426.65075659999985 665.6488041000001 L 439.33624239999983 665.6487431000002 L 439.34332249999983 700.0636601000001 C 438.45941139999985 700.3818364000001 437.6250607999998 700.8909916000001 436.9179684999998 701.5980839000001 C 434.3369747999998 704.1790776000001 434.3369747999998 708.3792118000001 436.9179684999998 710.9602055000001 C 439.4989010999998 713.5411381000001 443.6990963999998 713.5411381000001 446.2800289999998 710.9602055000001 C 448.86096159999977 708.3792118000001 448.86096159999977 704.1790776000001 446.2800289999998 701.5980839000001 C 445.5729366999998 700.8909916000001 444.7385250999998 700.3818363000001 443.85467499999976 700.0636601000001 L 443.84759489999976 652.7369999000001 L 500.55755579999976 652.7370609000001 L 500.55755579999976 661.1375126 L 446.90936239999974 661.1303715 L 446.90936239999974 661.2576298 L 446.95886189999976 665.6487431 L 500.55755569999974 665.6488041 L 500.55755569999974 674.9260868 L 466.50329539999973 674.9260258 C 466.1851190999997 674.1976933000001 465.7325433999997 673.5189213000001 465.13854929999974 672.9249272000001 C 462.55761669999976 670.3439946000001 458.35742139999974 670.3439946000001 455.77648879999975 672.9249272000001 C 453.19555619999977 675.5058598 453.19549509999973 679.7060551000001 455.77648879999975 682.2869877 C 458.35742139999974 684.8679814000001 462.55767779999974 684.8679203 465.13854929999974 682.2870487 C 465.95886179999974 681.4667362 466.51745549999976 680.4838871000001 466.81439159999974 679.4373783 L 505.0689081999997 679.4374392999999 L 505.0689081999997 641.8334354 C 508.87310739999975 638.1706546 512.2955316999997 634.1401371 515.2936395999998 629.8126224 L 534.2724603999998 629.8126834 C 534.5906366999998 630.7672122 535.1209710999998 631.6652224999999 535.8775628999998 632.4218753 C 538.4655755999999 635.009827 542.6586907999998 635.0169681 545.2467645999998 632.4289554000001 C 547.8276361999998 629.8480228000001 547.8276361999998 625.6477664 545.2396844999997 623.0597537000001 C 542.6586907999997 620.4788211000001 538.4584954999997 620.4788821000001 535.8775628999997 623.0597537000001 C 535.2199700999997 623.7173465000001 534.7320550999997 624.4881595 534.4067986999997 625.2941897000001 L 517.0684807999997 625.2941897000001 L 517.0685417999997 596.1048586000001 L 525.4619133999997 596.1119387000001 L 525.4618523999998 613.3087771000002 L 552.4663079999998 613.3016970000001 C 552.7845452999998 614.1290285000001 553.2794793999998 614.9067995000001 553.9441521999998 615.5714724000001 C 556.5250847999998 618.1524661000001 560.7252800999998 618.1524661000001 563.3062126999998 615.5715334 C 565.8942253999999 612.9835207 565.8942863999998 608.7833254 563.3132927999999 606.2023317000001 C 560.7253410999999 603.614319 556.5250847999998 603.614319 553.9370720999999 606.2023317000001 C 553.1875603999999 606.9518434 552.6643059999999 607.8428346000001 552.3531487999999 608.7903444000001 L 529.9802849999999 608.7903444000001 L 529.9802849999999 596.1047975000001 L 564.3881218999999 596.1048585000001 C 564.7133781999999 596.9957887 565.2153923999999 597.8231202000001 565.9224846999999 598.5302735000001 C 568.5034784 601.1112061000001 572.7107536999999 601.1182252000001 575.2916863999999 598.5372925000001 C 577.8726190999998 595.9563598000002 577.8656006 591.7490845 575.284668 589.1680908 z M 540.4454956 573.4915771 C 541.2657471 572.6713255999999 542.6021728 572.6784057 543.4224243 573.4986572 C 544.2426758 574.3189087000001 544.2496948 575.6552734 543.4294433 576.4755859 C 542.6091918 577.2957763 541.265747 577.2958374000001 540.4454955 576.4755859 C 539.625244 575.6553344 539.6252441 574.3118286 540.4454956 573.4915771 z M 474.1896362 474.2279053 C 475.0098266 473.4076538 476.3533325 473.4076538 477.173584 474.2279053 C 477.9938355 475.04815679999996 477.9938355 476.39166259999996 477.173584 477.2118531 C 476.7775879 477.6078492 476.2472534 477.8270875 475.6815796 477.82702639999997 C 475.1159058 477.82702639999997 474.5855713 477.6078492 474.1896362 477.2118531 C 473.3693237 476.3916016 473.3693848 475.0481567 474.1896362 474.2279053 z M 438.296875 490.9155884 C 439.1170654 490.095398 440.4535522 490.102417 441.2737427 490.9226685 C 442.0939942 491.74291999999997 442.0939942 493.0722657 441.2737427 493.8924561 C 440.4464722 494.7197876 439.11712650000004 494.7198487 438.296875 493.8995362 C 437.4766235 493.0793457 437.4695435 491.7429199 438.296875 490.9155884 z M 361.8656616 544.3233032 C 361.0454101 545.1436157 359.7089844 545.1506347000001 358.88873290000004 544.3303833000001 C 358.06848140000005 543.5101319000001 358.06848140000005 542.1666870000001 358.88873290000004 541.3464355000001 C 359.7089844 540.5261840000001 361.0524902 540.5261840000001 361.87274170000006 541.3464355000001 C 362.6929321 542.166626 362.6858521 543.5031128 361.8656616 544.3233032 z M 343.7990723 561.1878662 C 342.9788208 562.0080566 341.6423951 562.0151367000001 340.82220459999996 561.1948852 C 340.00189209999996 560.3746337 340.00189209999996 559.0311279 340.82214359999995 558.2108764000001 C 341.64239509999993 557.3906860000001 342.98590089999993 557.3906860000001 343.8061524 558.2109374 C 344.6264039 559.0311888 344.6193237 560.3676147 343.7990723 561.1878662 z M 331.8135986 578.2220459 C 330.9933471 579.0422974 329.66400139999996 579.0422974 328.84375 578.2219849 C 328.0234985 577.4017945 328.0164185 576.0653687 328.8366699 575.2451172000001 C 329.6640014 574.4177857000001 331.0004272 574.4248657 331.82067870000003 575.2450562000001 C 332.6409302 576.0653687 332.6409302 577.3947144 331.8135986 578.2220459 z M 360.4938354 597.0876465 C 359.673645 597.907898 358.33007810000004 597.907898 357.5098876 597.0876465 C 356.68963610000003 596.267395 356.68963610000003 594.9238892 357.5098266 594.1036377 C 358.3300781 593.2833862 359.66656489999997 593.2904663 360.4868163 594.1107178000001 C 361.3070677 594.9309693000001 361.3141479 596.267395 360.4938354 597.0876465 z M 394.7885132 635.6956787 L 388.3822022 635.6956787 L 388.3821412 542.0322876 C 390.33380139999997 539.2321777 392.47631839999997 536.5522461 394.7885743 534.0419922 L 394.7885132 635.6956787 z M 426.0567627 695.7856445 C 425.2365112 696.605896 423.89306639999995 696.605896 423.07275389999995 695.7856445 C 422.25256349999995 694.9654541 422.25256349999995 693.6218872 423.07281489999997 692.8016967 C 423.89306639999995 691.9813842 425.22949209999996 691.9884643 426.04974359999994 692.8087157 C 426.8699950999999 693.6289671 426.8770142 694.9653931 426.0567627 695.7856445 z M 461.9495239 679.0979614 C 461.1292724 679.9182129000001 459.79992669999996 679.9182129000001 458.9725952 679.0908813 C 458.1524048 678.2706297999999 458.1524048 676.9412841 458.9725952 676.1210937 C 459.7929077 675.3007812 461.1293335 675.2937010999999 461.9495239 676.1139526 C 462.7768555 676.9412231 462.7697754 678.27771 461.9495239 679.0979614 z M 491.0540771 492.2944336 C 491.87432859999996 491.4742432 493.21783439999996 491.4742432 494.0380859 492.2944946 C 494.8583374 493.114685 494.8583374 494.4582519 494.0380859 495.2784424 C 493.2178344 496.0986939 491.8743286 496.0986939 491.0540771 495.27850340000003 C 490.2338257 494.458252 490.2338257 493.1146851 491.0540771 492.2944336 z M 457.1624756 462.2495117 C 457.9827271 461.42926020000004 459.3191528 461.4221802 460.1393433 462.24243160000003 C 460.9666748 463.06970210000003 460.9596558 464.40612790000006 460.1393433 465.22637940000004 C 459.3191529 466.0466309 457.98272710000003 466.05371090000006 457.1553955 465.22637940000004 C 456.335144 464.406189 456.3422241 463.0697021 457.1624756 462.2495117 z M 399.3069458 534.0773926 L 441.987915 534.0774536 C 431.7561035 535.7249756 421.9273071 540.4766846 414.05718989999997 548.3468017 C 405.16180419999995 557.2421874 400.2474365 568.6336669 399.29986569999994 580.2868041 L 399.3069458 534.0773926 z M 417.2533569 617.3745728 C 399.10192870000003 599.2231446 399.09484860000003 569.6872559 417.24627680000003 551.5358277 C 435.39770500000003 533.3843995000001 464.9335327 533.3915406 483.08496090000006 551.5429688 C 501.2363891000001 569.6943970000001 501.23638910000005 599.2231446000001 483.08496090000006 617.3745728 C 464.93353270000006 635.526001 435.4047241 635.526001 417.2533569 617.3745728 z M 446.1598511 635.335083 L 399.3069458 635.335083 L 399.3069458 588.6236572 C 400.2474365 600.2838134 405.1618042 611.6752929 414.05718989999997 620.5706787 C 422.9950562 629.5085449 434.4501953 634.4158936 446.1598511 635.335083 z M 409.1923218 677.7190552 C 408.3720703 678.5393677 407.0285034 678.5393677 406.208252 677.7190552 C 405.3880616 676.8988648 405.3951416 675.562378 406.21539310000003 674.7421264999999 C 407.03558350000003 673.9219360999999 408.36499030000004 673.9219360999999 409.18518070000005 674.7421264999999 C 410.0054932 675.5623779 410.0125732 676.8988647 409.1923218 677.7190552 z M 443.0839233 707.7640381 C 442.2636718 708.5842896 440.9272461 708.5913696 440.1069946 707.7711182 C 439.2867431 706.9508668000001 439.2868042 705.6073609 440.1069946 704.7871704 C 440.9272461 703.9669189 442.27069090000003 703.9669189 443.09100340000003 704.7871704 C 443.9111938 705.6073608 443.9041138 706.9438477 443.0839233 707.7640381 z M 409.9406738 648.225647 C 406.1890259 645.8417969 402.5432129 642.8594971 399.26446530000004 639.8464356 L 500.55047600000006 639.8464965999999 L 500.55755610000006 648.2257079999999 L 409.9406738 648.225647 z M 500.5575562 635.328064 L 454.1784058 635.335083 C 465.88812260000003 634.4158935 477.3432618 629.5085449000001 486.2810669 620.5707397000001 C 494.1723633 612.6794433000001 498.9171143 602.8294677000001 500.5576172 592.5763549000001 L 500.5575562 635.328064 z M 500.5576172 576.3411865 C 498.9171143 566.0881958 494.1724243 556.2381592 486.2811279 548.3468017 C 478.4110107 540.4766845 468.5822143 535.7249755 458.3504028 534.0774536 L 500.5576172 534.0844726 L 500.5576172 576.3411865 z M 399.6887817 529.56604 L 399.6887817 521.7878418 L 490.559082 521.7949829 C 494.12292479999996 524.1001587000001 497.4746093 526.7022705 500.5929565 529.5661011000001 L 399.6887817 529.56604 z M 505.0689087 635.3704834 L 505.0689697 534.890625 L 512.5501098 534.890625 L 512.5571899 625.7891846 C 510.3297729 629.1762695 507.8195801 632.3793945 505.0689087 635.3704834 z M 539.0736694 626.2558594 C 539.8939209 625.435669 541.2232666 625.435669 542.043518 626.2559203999999 C 542.8708495 627.0831909 542.8708495 628.4125975999999 542.0505981 629.2327880999999 C 541.2233276 630.0601195999999 539.8939209 630.0601195999999 539.0666503 629.2327880999999 C 538.2463379 628.4125366 538.2463379 627.0831909 539.0736694 626.2558594 z M 557.1332397 609.3984985 C 557.9605102 608.571167 559.2898559 608.571167 560.1171875 609.3984985 C 560.937439 610.21875 560.937439 611.5480957 560.1101685 612.3754272 C 559.289856 613.1956787 557.9605103 613.1956787 557.1402588 612.3754272 C 556.3129272 611.5480957 556.3129272 610.21875 557.1332397 609.3984985 z M 572.0956421 595.3411865 C 571.2753296 596.1614380000001 569.9389037999999 596.1685180000001 569.1115722999999 595.3411865 C 568.2913207999999 594.520935 568.2984008999999 593.1845093000001 569.1187133999999 592.3642578 C 569.9389037999999 591.5440063 571.2753296 591.5369263 572.0955810999999 592.3571777 C 572.9229126 593.1845093 572.9158325 594.5209351 572.0956421 595.3411865 z" stroke-linecap="round" />
</g>
</g>
</g>
<g transform="matrix(1.9211538461538462 0 0 1.9211538461538462 665.8984121624904 682.1994608380764)" id="text-logo"  >
<g style=""  paint-order="stroke"   >
		<g transform="matrix(1 0 0 1 0 0)" id="text-logo-path-0"  >
<path style="stroke: none; stroke-width: 0; stroke-dasharray: none; stroke-linecap: butt; stroke-dashoffset: 0; stroke-linejoin: miter; stroke-miterlimit: 4; fill: rgb(160,255,103); fill-rule: nonzero; opacity: 1;"  paint-order="stroke"  transform=" translate(-78.32, 8.815)" d="M 3.88 -2.1 Q 1.22 -4.55 1.22 -8.75 Q 1.22 -12.95 3.88 -15.4 Q 6.54 -17.85 11.06 -17.85 Q 15.58 -17.85 18.23 -15.4 Q 20.89 -12.95 20.89 -8.75 Q 20.89 -4.55 18.23 -2.1 Q 15.58 0.35 11.06 0.35 Q 6.54 0.35 3.88 -2.1 Z M 6.87 -14.64 Q 5.32 -12.48 5.32 -8.75 Q 5.32 -5.03 6.87 -2.86 Q 8.41 -0.7 11.06 -0.7 Q 13.71 -0.7 15.25 -2.86 Q 16.78 -5.03 16.78 -8.75 Q 16.78 -12.48 15.25 -14.64 Q 13.71 -16.8 11.06 -16.8 Q 8.41 -16.8 6.87 -14.64 Z M 31.16 0 L 23.25 0 L 23.25 -0.26 L 23.56 -0.26 Q 24.21 -0.26 24.68 -0.71 Q 25.15 -1.16 25.16 -1.81 L 25.16 -1.81 L 25.16 -15.7 Q 25.15 -16.35 24.68 -16.8 Q 24.21 -17.25 23.56 -17.25 L 23.56 -17.25 L 23.25 -17.25 L 23.25 -17.5 L 30.49 -17.5 Q 31.89 -17.5 33.02 -17.26 Q 34.15 -17.02 35.02 -16.52 Q 35.88 -16.02 36.36 -15.18 Q 36.83 -14.34 36.83 -13.22 L 36.83 -13.22 Q 36.83 -11.6 35.94 -10.64 Q 35.04 -9.68 33.76 -9.52 L 33.76 -9.52 Q 35.7 -9.33 36.96 -8.08 L 36.96 -8.08 Q 38.2 -6.84 38.2 -4.92 L 38.2 -4.92 Q 38.2 -3.31 37.32 -2.2 Q 36.44 -1.09 34.87 -0.54 Q 33.29 0 31.16 0 L 31.16 0 Z M 28.92 -16.42 L 28.92 -1.14 L 30.08 -1.14 Q 30.11 -1.14 30.12 -1.14 L 30.12 -1.14 Q 31.84 -1.14 32.87 -2.14 Q 33.89 -3.14 33.89 -5.14 L 33.89 -5.14 Q 33.89 -6.25 33.57 -7.05 Q 33.25 -7.85 32.67 -8.31 Q 32.09 -8.78 31.36 -9.01 Q 30.63 -9.24 29.77 -9.24 L 29.77 -9.24 L 29.77 -9.48 Q 30.39 -9.48 30.91 -9.67 Q 31.44 -9.85 31.88 -10.24 Q 32.33 -10.63 32.58 -11.31 Q 32.83 -11.99 32.83 -12.9 L 32.83 -12.9 Q 32.83 -14.72 31.99 -15.57 Q 31.15 -16.42 29.63 -16.42 L 29.63 -16.42 L 28.92 -16.42 Z M 53.69 0 L 40.75 0 L 40.75 -0.24 L 41.06 -0.24 Q 41.72 -0.24 42.19 -0.71 Q 42.65 -1.17 42.66 -1.82 L 42.66 -1.82 L 42.66 -15.76 Q 42.61 -16.38 42.16 -16.82 Q 41.7 -17.25 41.06 -17.25 L 41.06 -17.25 L 40.75 -17.25 L 40.75 -17.5 L 50.33 -17.5 Q 51.11 -17.52 52.03 -17.66 Q 52.95 -17.8 53.32 -17.96 L 53.32 -17.96 L 53.32 -13.59 L 53.06 -13.59 L 53.06 -13.88 Q 53.06 -15 52.4 -15.69 Q 51.74 -16.38 50.62 -16.43 L 50.62 -16.43 L 46.41 -16.43 L 46.41 -9.16 L 49.73 -9.16 Q 50.66 -9.17 51.25 -9.78 Q 51.84 -10.39 51.84 -11.3 L 51.84 -11.3 L 51.84 -11.51 L 52.09 -11.52 L 52.09 -5.74 L 51.84 -5.75 L 51.84 -5.96 Q 51.84 -6.86 51.25 -7.47 Q 50.66 -8.08 49.75 -8.11 L 49.75 -8.11 L 46.41 -8.11 L 46.41 -1.07 L 49.69 -1.07 Q 51.52 -1.07 52.76 -2.13 Q 53.99 -3.19 54.59 -5.1 L 54.59 -5.1 L 54.83 -5.1 L 53.69 0 Z M 57.15 -8.78 L 57.15 -8.78 Q 57.15 -12.98 59.88 -15.41 Q 62.61 -17.85 67.36 -17.85 L 67.36 -17.85 Q 70.95 -17.85 73.58 -16.49 L 73.58 -16.49 L 73.62 -12.21 L 73.42 -12.21 Q 72.14 -16.8 67.61 -16.8 L 67.61 -16.8 Q 64.64 -16.8 62.93 -14.65 Q 61.22 -12.51 61.22 -8.83 L 61.22 -8.83 Q 61.22 -5.13 62.86 -2.95 Q 64.49 -0.77 67.29 -0.7 L 67.29 -0.7 Q 70.23 -0.7 71.76 -2.19 Q 73.28 -3.67 73.86 -7.3 L 73.86 -7.3 L 74.06 -7.3 L 74.31 -2.99 Q 72.28 0.35 67.29 0.35 L 67.29 0.35 Q 64.23 0.34 61.94 -0.74 Q 59.66 -1.82 58.4 -3.89 Q 57.15 -5.96 57.15 -8.78 Z M 76.86 -13.62 L 76.62 -13.62 L 76.62 -17.98 Q 76.99 -17.82 77.9 -17.68 Q 78.81 -17.54 79.57 -17.53 L 79.57 -17.53 L 89.63 -17.53 Q 90.4 -17.54 91.32 -17.68 Q 92.23 -17.82 92.6 -17.98 L 92.6 -17.98 L 92.6 -13.62 L 92.34 -13.62 L 92.34 -13.92 Q 92.34 -15.06 91.67 -15.75 Q 90.99 -16.44 89.84 -16.47 L 89.84 -16.47 L 86.48 -16.47 L 86.48 -1.81 Q 86.51 -1.16 86.97 -0.7 Q 87.44 -0.24 88.08 -0.24 L 88.08 -0.24 L 88.4 -0.24 L 88.41 0 L 80.81 0 L 80.81 -0.24 L 81.13 -0.24 Q 81.77 -0.24 82.24 -0.69 Q 82.7 -1.14 82.72 -1.78 L 82.72 -1.78 L 82.72 -16.47 L 79.37 -16.47 Q 78.22 -16.44 77.54 -15.75 Q 76.86 -15.06 76.86 -13.92 L 76.86 -13.92 L 76.86 -13.62 Z M 102.38 0 L 94.78 0 L 94.78 -0.26 L 95.1 -0.26 Q 95.74 -0.26 96.21 -0.71 Q 96.68 -1.16 96.69 -1.81 L 96.69 -1.81 L 96.69 -15.69 Q 96.68 -16.33 96.21 -16.79 Q 95.74 -17.25 95.1 -17.25 L 95.1 -17.25 L 94.78 -17.25 L 94.78 -17.5 L 103.36 -17.5 Q 104.3 -17.5 105.14 -17.35 Q 105.98 -17.2 106.76 -16.84 Q 107.53 -16.48 108.09 -15.95 Q 108.65 -15.42 108.97 -14.61 Q 109.3 -13.79 109.3 -12.78 L 109.3 -12.78 Q 109.3 -11.96 109.05 -11.19 Q 108.8 -10.41 108.32 -9.73 Q 107.84 -9.05 107.03 -8.59 Q 106.23 -8.13 105.2 -8.03 L 105.2 -8.03 Q 105.95 -7.79 106.62 -7.17 Q 107.29 -6.56 107.75 -5.82 L 107.75 -5.82 Q 107.84 -5.68 108.22 -5.08 Q 108.61 -4.49 109.24 -3.58 Q 109.87 -2.67 110.28 -2.15 L 110.28 -2.15 Q 111.11 -1.1 111.76 -0.68 Q 112.42 -0.27 113.37 -0.26 L 113.37 -0.26 L 113.37 0 L 110.94 0 Q 108.75 0 107.32 -0.58 Q 105.89 -1.16 105.07 -2.59 L 105.07 -2.59 Q 104.47 -3.63 102.98 -6.87 L 102.98 -6.87 Q 102.26 -8.39 101.28 -8.56 L 101.28 -8.56 L 101.28 -8.8 L 102.05 -8.8 Q 103.19 -8.81 104.04 -9.48 Q 104.89 -10.16 105.2 -11.68 L 105.2 -11.68 Q 105.3 -12.21 105.3 -12.71 L 105.3 -12.71 Q 105.3 -12.81 105.3 -12.9 L 105.3 -12.9 Q 105.23 -14.64 104.44 -15.5 Q 103.65 -16.37 102.36 -16.39 L 102.36 -16.39 Q 101.99 -16.41 101.28 -16.41 Q 100.56 -16.41 100.45 -16.41 L 100.45 -16.41 L 100.45 -1.82 Q 100.47 -1.17 100.94 -0.71 Q 101.41 -0.26 102.07 -0.26 L 102.07 -0.26 L 102.37 -0.26 L 102.38 0 Z M 116.21 -2.1 Q 113.55 -4.55 113.55 -8.75 Q 113.55 -12.95 116.21 -15.4 Q 118.87 -17.85 123.38 -17.85 Q 127.9 -17.85 130.56 -15.4 Q 133.21 -12.95 133.21 -8.75 Q 133.21 -4.55 130.56 -2.1 Q 127.9 0.35 123.38 0.35 Q 118.87 0.35 116.21 -2.1 Z M 119.19 -14.64 Q 117.65 -12.48 117.65 -8.75 Q 117.65 -5.03 119.19 -2.86 Q 120.74 -0.7 123.38 -0.7 Q 126.03 -0.7 127.57 -2.86 Q 129.11 -5.03 129.11 -8.75 Q 129.11 -12.48 127.57 -14.64 Q 126.03 -16.8 123.38 -16.8 Q 120.74 -16.8 119.19 -14.64 Z M 142.85 0 L 135.27 0 L 135.27 -0.24 L 135.73 -0.24 Q 136.37 -0.24 136.82 -0.69 Q 137.27 -1.14 137.28 -1.77 L 137.28 -1.77 L 137.28 -14.75 Q 137.28 -15.58 137.21 -16.36 Q 137.13 -17.14 137.06 -17.5 L 137.06 -17.5 L 136.99 -17.87 L 137.23 -17.87 L 149.84 -5.85 L 149.84 -15.73 Q 149.83 -16.37 149.38 -16.81 Q 148.94 -17.25 148.3 -17.25 L 148.3 -17.25 L 147.84 -17.25 L 147.84 -17.5 L 155.42 -17.5 L 155.41 -17.25 L 154.96 -17.25 Q 154.32 -17.25 153.88 -16.82 Q 153.43 -16.38 153.41 -15.76 L 153.41 -15.76 L 153.41 -2.84 Q 153.41 -2.01 153.48 -1.21 Q 153.55 -0.42 153.63 -0.02 L 153.63 -0.02 L 153.7 0.35 L 153.47 0.35 L 140.83 -11.68 L 140.83 -1.76 Q 140.86 -1.14 141.3 -0.69 Q 141.75 -0.24 142.38 -0.24 L 142.38 -0.24 L 142.85 -0.24 L 142.85 0 Z" stroke-linecap="round" />
</g>
</g>
</g>
<g transform="matrix(1.9211538461538462 0 0 1.9211538461538462 644.2903449593288 398.77206755530705)" id="tagline-9cf610d0-ef43-403c-a7f2-67f87634d4ff-logo-0"  >
<g style=""  paint-order="stroke"   >
		<g transform="matrix(1 0 0 1 0 0)" id="tagline-9cf610d0-ef43-403c-a7f2-67f87634d4ff-logo-0-path-0"  >
<linearGradient id="SVGID_14538" gradientUnits="userSpaceOnUse" gradientTransform="matrix(1 0 0 1 2.0700000000000003 -32.21)"  x1="0" y1="0" x2="0" y2="52">
<stop offset="0%" style="stop-color:rgb(180,236,81);stop-opacity: 1"/>
<stop offset="100%" style="stop-color:rgb(66,147,33);stop-opacity: 1"/>
</linearGradient>
<path style="stroke: rgb(160,255,103); stroke-width: 2.759999999999998; stroke-dasharray: none; stroke-linecap: butt; stroke-dashoffset: 0; stroke-linejoin: miter; stroke-miterlimit: 4; fill: url(#SVGID_14538); fill-rule: nonzero; opacity: 1;"  paint-order="stroke"  transform=" translate(-19.17, 16.105)" d="M 16.06 0 L 2.07 0 L 2.07 -0.47 L 2.65 -0.47 Q 3.84 -0.47 4.71 -1.3 Q 5.57 -2.13 5.59 -3.32 L 5.59 -3.32 L 5.59 -28.86 Q 5.57 -30.05 4.71 -30.9 Q 3.84 -31.74 2.65 -31.74 L 2.65 -31.74 L 2.07 -31.74 L 2.07 -32.21 L 17.86 -32.21 Q 19.59 -32.21 21.14 -31.93 Q 22.69 -31.65 24.11 -30.98 Q 25.54 -30.32 26.56 -29.35 Q 27.58 -28.37 28.19 -26.87 Q 28.79 -25.38 28.79 -23.52 L 28.79 -23.52 Q 28.79 -22.01 28.33 -20.59 Q 27.87 -19.16 26.99 -17.9 Q 26.1 -16.64 24.62 -15.8 Q 23.13 -14.96 21.25 -14.78 L 21.25 -14.78 Q 22.62 -14.33 23.85 -13.2 Q 25.09 -12.06 25.94 -10.71 L 25.94 -10.71 Q 26.1 -10.44 26.81 -9.35 Q 27.51 -8.27 28.67 -6.59 Q 29.83 -4.92 30.59 -3.95 L 30.59 -3.95 Q 32.12 -2.02 33.32 -1.26 Q 34.52 -0.49 36.27 -0.47 L 36.27 -0.47 L 36.27 0 L 31.8 0 Q 27.78 0 25.15 -1.07 Q 22.51 -2.13 21 -4.76 L 21 -4.76 Q 19.9 -6.67 17.16 -12.65 L 17.16 -12.65 Q 15.83 -15.43 14.04 -15.75 L 14.04 -15.75 L 14.04 -16.19 L 15.45 -16.19 Q 17.54 -16.22 19.1 -17.45 Q 20.66 -18.69 21.25 -21.5 L 21.25 -21.5 Q 21.43 -22.46 21.43 -23.38 L 21.43 -23.38 Q 21.43 -23.56 21.43 -23.74 L 21.43 -23.74 Q 21.29 -26.93 19.84 -28.53 Q 18.4 -30.12 16.01 -30.17 L 16.01 -30.17 Q 15.34 -30.19 14.03 -30.19 Q 12.71 -30.19 12.51 -30.19 L 12.51 -30.19 L 12.51 -3.35 Q 12.53 -2.16 13.4 -1.31 Q 14.26 -0.47 15.48 -0.47 L 15.48 -0.47 L 16.04 -0.47 L 16.06 0 Z" stroke-linecap="round" />
</g>
</g>
</g>
<g transform="matrix(1.9211538461538462 0 0 1.9211538461538462 491.3905071675513 676.4350143798981)" id="tagline-86150aaf-d01a-458e-8b29-a2a7af1301f1-logo"  >
<g style=""  paint-order="stroke"   >
		<g transform="matrix(1 0 0 1 0 0)" id="tagline-86150aaf-d01a-458e-8b29-a2a7af1301f1-logo-path-0"  >
<linearGradient id="SVGID_14539" gradientUnits="userSpaceOnUse" gradientTransform="matrix(1 0 0 1 1.3499999999999996 -21.01)"  x1="0" y1="0" x2="0" y2="34">
<stop offset="0%" style="stop-color:rgb(180,236,81);stop-opacity: 1"/>
<stop offset="100%" style="stop-color:rgb(66,147,33);stop-opacity: 1"/>
</linearGradient>
<path style="stroke: rgb(156,245,99); stroke-width: 1.7647058823529411; stroke-dasharray: none; stroke-linecap: butt; stroke-dashoffset: 0; stroke-linejoin: miter; stroke-miterlimit: 4; fill: url(#SVGID_14539); fill-rule: nonzero; opacity: 1;"  paint-order="stroke"  transform=" translate(-12.504999999999999, 10.505)" d="M 10.47 0 L 1.35 0 L 1.35 -0.31 L 1.73 -0.31 Q 2.5 -0.31 3.07 -0.85 Q 3.63 -1.39 3.65 -2.17 L 3.65 -2.17 L 3.65 -18.82 Q 3.63 -19.6 3.07 -20.15 Q 2.5 -20.7 1.73 -20.7 L 1.73 -20.7 L 1.35 -20.7 L 1.35 -21.01 L 11.65 -21.01 Q 12.77 -21.01 13.78 -20.82 Q 14.79 -20.64 15.73 -20.21 Q 16.66 -19.78 17.32 -19.14 Q 17.99 -18.5 18.38 -17.53 Q 18.78 -16.55 18.78 -15.34 L 18.78 -15.34 Q 18.78 -14.36 18.48 -13.43 Q 18.18 -12.5 17.6 -11.67 Q 17.02 -10.85 16.05 -10.31 Q 15.09 -9.76 13.86 -9.64 L 13.86 -9.64 Q 14.75 -9.35 15.56 -8.61 Q 16.36 -7.87 16.92 -6.99 L 16.92 -6.99 Q 17.02 -6.81 17.48 -6.1 Q 17.94 -5.39 18.7 -4.3 Q 19.45 -3.21 19.95 -2.58 L 19.95 -2.58 Q 20.95 -1.32 21.73 -0.82 Q 22.51 -0.32 23.66 -0.31 L 23.66 -0.31 L 23.66 0 L 20.74 0 Q 18.12 0 16.4 -0.7 Q 14.68 -1.39 13.7 -3.11 L 13.7 -3.11 Q 12.98 -4.35 11.19 -8.25 L 11.19 -8.25 Q 10.33 -10.06 9.16 -10.27 L 9.16 -10.27 L 9.16 -10.56 L 10.08 -10.56 Q 11.44 -10.58 12.46 -11.38 Q 13.48 -12.19 13.86 -14.02 L 13.86 -14.02 Q 13.97 -14.65 13.97 -15.25 L 13.97 -15.25 Q 13.97 -15.37 13.97 -15.48 L 13.97 -15.48 Q 13.89 -17.56 12.94 -18.6 Q 12 -19.64 10.44 -19.67 L 10.44 -19.67 Q 10 -19.69 9.15 -19.69 Q 8.29 -19.69 8.16 -19.69 L 8.16 -19.69 L 8.16 -2.18 Q 8.17 -1.41 8.74 -0.86 Q 9.3 -0.31 10.09 -0.31 L 10.09 -0.31 L 10.46 -0.31 L 10.47 0 Z" stroke-linecap="round" />
</g>
</g>
</g>
</svg>