<?xml version="1.0" encoding="UTF-8" standalone="no" ?>
<!DOCTYPE svg PUBLIC "-//W3C//DTD SVG 1.1//EN" "http://www.w3.org/Graphics/SVG/1.1/DTD/svg11.dtd">
<svg xmlns="http://www.w3.org/2000/svg" xmlns:xlink="http://www.w3.org/1999/xlink" version="1.1" width="1280" height="1024" viewBox="0 0 1280 1024" xml:space="preserve">
<desc>Created with Fabric.js 4.4.0</desc>
<defs>
</defs>
<g transform="matrix(1 0 0 1 640 512)" id="background-logo"  >
<rect style="stroke: none; stroke-width: 0; stroke-dasharray: none; stroke-linecap: butt; stroke-dashoffset: 0; stroke-linejoin: miter; stroke-miterlimit: 4; fill: rgb(255,255,255); fill-opacity: 0; fill-rule: nonzero; opacity: 1;"  paint-order="stroke"  x="-640" y="-512" rx="0" ry="0" width="1280" height="1024" />
</g>
<g transform="matrix(1.9211538461538462 0 0 1.9211538461538462 640 419.66132984096083)" id="logo-logo"  >
<g style=""  paint-order="stroke"   >
		<g transform="matrix(0.7190618781957164 0 0 0.7190618781957164 0 -2.842171e-14)"  >
<path style="stroke: none; stroke-width: 1; stroke-dasharray: none; stroke-linecap: butt; stroke-dashoffset: 0; stroke-linejoin: miter; stroke-miterlimit: 4; fill: rgb(160,255,103); fill-rule: nonzero; opacity: 1;"  paint-order="stroke"  transform=" translate(-450.46790473302235, -585.0067866374663)" d="M 575.284668 589.1680908 C 572.7037354 586.5872191999999 568.503479 586.5872191999999 565.9225464 589.1680908 C 565.2154541 589.8752440999999 564.7063598999999 590.7096557 564.3881226 591.5935058 L 517.0685424999999 591.5935058 L 517.0614623999999 534.8906249 L 525.4619140999998 534.8906249 L 525.4619140999998 588.5883178 L 529.9802856999999 588.5388183 L 529.9732055999998 534.8906249 L 539.2504882999998 534.8906249 L 539.2504882999998 568.9448852 C 538.5292358999998 569.2560424000001 537.8504028999998 569.7085571 537.2564086999998 570.3025512 C 534.6754760999999 572.8834228000001 534.6754760999999 577.0837402000001 537.2564086999998 579.6646117 C 539.8373412999998 582.2456054 544.0375976999999 582.2455443 546.6185302999999 579.6646117 C 549.1994628999998 577.0836791 549.1994628999998 572.8834838 546.6185302999999 570.3025512 C 545.7982787999998 569.4822997 544.8153686999999 568.9236450000001 543.7688598999998 568.6266479000001 L 543.7689208999998 530.3721923 L 507.82666019999976 530.3792724000001 C 503.83856209999976 526.1224365 499.40502929999974 522.3253173 494.60375979999975 519.0513915000001 L 494.60375979999975 500.07263170000016 C 495.56542969999975 499.76153550000015 496.4635009999997 499.23120100000017 497.22717289999974 498.4675292000002 C 499.8081054999997 495.8865966000002 499.8081054999997 491.6863402000002 497.22717289999974 489.10540760000015 C 494.64624029999976 486.5244750000001 490.44598389999976 486.5245360000001 487.8650512999997 489.10540760000015 C 485.28411869999974 491.68640130000017 485.2840575999997 495.88659660000013 487.8650512999997 498.4675292000002 C 488.5226440999997 499.12518300000016 489.2792358999997 499.6130370000002 490.0924682999997 499.9312133000002 L 490.0924072999997 517.2836303000001 L 460.9100952999997 517.2765502000001 L 460.9030151999997 508.8832397000001 L 478.0999145999997 508.8831787000001 L 478.1069946999997 481.8787842000001 C 478.9413452999997 481.5535279000001 479.7050171999997 481.0585327000001 480.3626709999997 480.4009400000001 C 482.9436035999997 477.8200074000001 482.9435425999997 473.6197510000001 480.3626709999997 471.0388184000001 C 477.78167729999967 468.4578858000001 473.5815430999997 468.4578858000001 471.00054939999967 471.0388184000001 C 468.4196167999997 473.6198121000001 468.4196167999997 477.8199463000001 471.00054939999967 480.4009400000001 C 471.7430420999997 481.1433716000001 472.62689219999965 481.6737061000001 473.58856209999965 481.9989625000001 L 473.58856209999965 504.3718263000001 L 460.9100952999996 504.3648073000001 L 460.91015629999964 469.9569704000001 C 461.79400639999966 469.6387941000001 462.62841799999967 469.1296389000001 463.33551029999967 468.4225466000001 C 465.91644289999965 465.84155290000007 465.91644289999965 461.6414187000001 463.3284301999997 459.05334490000007 C 460.7474975999997 456.47247330000005 456.54730229999967 456.4724123000001 453.9663696999997 459.05334490000007 C 451.38537599999967 461.6343386000001 451.3854370999997 465.83453390000005 453.9663086999997 468.4154665000001 C 454.6805420999997 469.1296389000001 455.5078125999997 469.63171410000007 456.39172369999966 469.9498903000001 L 456.39880379999965 517.2765505000001 L 399.6887817999997 517.2764895000001 L 399.6887817999997 508.8760378000001 L 453.4077148999997 508.88317890000013 L 453.4006347999997 504.5628054000001 L 453.4006347999997 504.36480740000013 L 399.6887817999997 504.3647464000001 L 399.6887817999997 495.0874637000001 L 433.7360229999997 495.0945438000001 C 434.0612792999997 495.8158573000001 434.5138549999997 496.4946903000001 435.1077880999997 497.08862340000013 C 437.68878179999973 499.6695560000001 441.8889159999997 499.6695560000001 444.46990969999973 497.08862340000013 C 447.05078129999976 494.50769080000015 447.0508422999997 490.30749550000013 444.46990969999973 487.72656290000015 C 441.8889159999997 485.1455692000001 437.68872069999975 485.14563030000016 435.1077880999997 487.72650190000013 C 434.2805175999997 488.55383340000014 433.7218627999997 489.53674360000014 433.4248656999997 490.5832524000001 L 395.17749019999974 490.5761723000001 L 395.1774291999997 527.2042851000001 C 390.88531489999974 531.2984623000001 387.06695559999974 535.8522343000001 383.7859496999997 540.7736210000002 L 366.6597899999997 540.7736820000001 C 366.3557738999997 539.8190311000001 365.8184203999997 538.9140018000002 365.0617674999997 538.1573490000001 C 363.7748411999997 536.8704227000001 362.0778196999997 536.21991 360.3807371999997 536.21991 C 358.68365469999975 536.21991 356.9866331999997 536.8704227000001 355.69970689999974 538.1573490000001 C 353.11877429999976 540.7383427000001 353.1187131999997 544.9384769000001 355.69970689999974 547.5194706000001 C 358.2806394999997 550.1004032000001 362.48083479999974 550.1004032000001 365.0617673999997 547.5194706000001 C 365.7194211999997 546.8618778000001 366.20019509999975 546.0981449000001 366.5255124999997 545.2921146000001 L 383.8707883999997 545.2849735000001 L 383.8707883999997 574.4743656 L 375.4703977999997 574.4743656 L 375.4703977999997 557.2775883 L 348.47302229999974 557.2775273000001 C 348.14776599999976 556.4572758 347.65985089999975 555.6865239000001 346.99523909999976 555.0219121000001 C 344.41424539999974 552.4409184000001 340.2140500999998 552.4408574000001 337.6330564999998 555.0218511000002 C 335.0521238999998 557.6027837000001 335.05218489999976 561.8030401000002 337.6331174999998 564.3839727000002 C 340.21405009999984 566.9649053000002 344.4142453999998 566.9649053000002 346.9952390999998 564.3839727000002 C 347.74475079999985 563.6344610000002 348.26800519999983 562.7434698000002 348.58618149999984 561.7888799000002 L 370.95904529999984 561.7888799000002 L 370.95904529999984 574.4743657000002 L 336.55120839999984 574.4744267000002 C 336.22595209999986 573.5975346000002 335.7167967999998 572.7631840000003 335.0097044999998 572.0560917000003 C 332.42877189999984 569.4751591000003 328.2285765999998 569.4750980000002 325.6475828999998 572.0560307000003 C 323.0667112999998 574.6369633000003 323.0667112999998 578.8372197000003 325.6475828999998 581.4181523000003 C 328.2285765999998 583.9990849000003 332.4287718999998 583.9990849000003 335.0097044999998 581.4181523000003 C 335.7238768999998 580.7039799000003 336.2259520999998 579.8766484000004 336.5441893999998 578.9927983000003 L 383.87078849999983 578.9857182000003 L 383.87084949999985 635.6956791000002 L 375.47039779999983 635.6956791000002 L 375.4774778999998 582.0050663000002 L 375.3148191999998 582.0121464000002 L 370.95904529999984 582.0263066000002 L 370.95904529999984 635.6956792000002 L 361.68182359999986 635.6956792000002 L 361.68176259999984 601.6414189000002 C 362.41009509999986 601.3231816000002 363.08898919999984 600.8706669000002 363.68292229999986 600.2767338000002 C 366.26385489999984 597.6958012000002 366.2637938999999 593.4955448000002 363.68292229999986 590.9146733000002 C 361.10192859999984 588.3336796000002 356.90179439999986 588.3336796000002 354.32080069999984 590.9146733000002 C 351.7399290999998 593.4955449000003 351.73986809999985 597.6958012000002 354.32080069999984 600.2767338000002 C 355.1410521999998 601.0969853000003 356.12396229999985 601.6555790000002 357.17041009999986 601.9525150000002 L 357.1704710999999 640.2070316000002 L 393.1480711999999 640.2070316000002 C 393.3601683999999 640.4191898000001 393.5652464999999 640.6383670000001 393.7773436999999 640.8505253000002 C 397.40484609999993 644.4779667000001 401.3929442999999 647.7306523000002 405.6355589999999 650.5874027000002 L 405.6355589999999 669.9479984000002 C 404.6809080999999 670.2520145000002 403.7758177999999 670.7894291000002 403.0192259999999 671.5460209000001 C 400.4382933999999 674.1269535000001 400.4382933999999 678.3272099000002 403.0192259999999 680.9081425000002 C 405.6001585999999 683.4890751000002 409.8004149999999 683.4890751000002 412.3814085999999 680.9081425000002 C 414.9622801999999 678.3272099000002 414.9622801999999 674.1269535000001 412.38134759999986 671.5460209000001 C 411.7237547999999 670.8883671000001 410.96710199999984 670.4005131000001 410.15393059999985 670.0823368000001 L 410.15393059999985 652.7440800000002 L 439.3362425999999 652.7369999000001 L 439.3362425999999 661.1373905000002 L 422.1394041999999 661.1374515000001 L 422.1394041999999 688.1347660000001 C 421.3191526999999 688.4600223000001 420.5484007999999 688.9479374000001 419.8837278999999 689.6126102000002 C 417.3027952999999 692.1935428000002 417.3027952999999 696.3937992000002 419.8837278999999 698.9747318000002 C 422.46466049999987 701.5556644000002 426.66491689999987 701.5556034000002 429.24578839999987 698.9747318000002 C 431.8267820999999 696.3937381000002 431.8267820999999 692.1936039000002 429.24578839999987 689.6126102000002 C 428.49627669999984 688.8630985000002 427.6053464999999 688.3398441000002 426.65783669999985 688.0286869000001 L 426.65075659999985 665.6488041000001 L 439.33624239999983 665.6487431000002 L 439.34332249999983 700.0636601000001 C 438.45941139999985 700.3818364000001 437.6250607999998 700.8909916000001 436.9179684999998 701.5980839000001 C 434.3369747999998 704.1790776000001 434.3369747999998 708.3792118000001 436.9179684999998 710.9602055000001 C 439.4989010999998 713.5411381000001 443.6990963999998 713.5411381000001 446.2800289999998 710.9602055000001 C 448.86096159999977 708.3792118000001 448.86096159999977 704.1790776000001 446.2800289999998 701.5980839000001 C 445.5729366999998 700.8909916000001 444.7385250999998 700.3818363000001 443.85467499999976 700.0636601000001 L 443.84759489999976 652.7369999000001 L 500.55755579999976 652.7370609000001 L 500.55755579999976 661.1375126 L 446.90936239999974 661.1303715 L 446.90936239999974 661.2576298 L 446.95886189999976 665.6487431 L 500.55755569999974 665.6488041 L 500.55755569999974 674.9260868 L 466.50329539999973 674.9260258 C 466.1851190999997 674.1976933000001 465.7325433999997 673.5189213000001 465.13854929999974 672.9249272000001 C 462.55761669999976 670.3439946000001 458.35742139999974 670.3439946000001 455.77648879999975 672.9249272000001 C 453.19555619999977 675.5058598 453.19549509999973 679.7060551000001 455.77648879999975 682.2869877 C 458.35742139999974 684.8679814000001 462.55767779999974 684.8679203 465.13854929999974 682.2870487 C 465.95886179999974 681.4667362 466.51745549999976 680.4838871000001 466.81439159999974 679.4373783 L 505.0689081999997 679.4374392999999 L 505.0689081999997 641.8334354 C 508.87310739999975 638.1706546 512.2955316999997 634.1401371 515.2936395999998 629.8126224 L 534.2724603999998 629.8126834 C 534.5906366999998 630.7672122 535.1209710999998 631.6652224999999 535.8775628999998 632.4218753 C 538.4655755999999 635.009827 542.6586907999998 635.0169681 545.2467645999998 632.4289554000001 C 547.8276361999998 629.8480228000001 547.8276361999998 625.6477664 545.2396844999997 623.0597537000001 C 542.6586907999997 620.4788211000001 538.4584954999997 620.4788821000001 535.8775628999997 623.0597537000001 C 535.2199700999997 623.7173465000001 534.7320550999997 624.4881595 534.4067986999997 625.2941897000001 L 517.0684807999997 625.2941897000001 L 517.0685417999997 596.1048586000001 L 525.4619133999997 596.1119387000001 L 525.4618523999998 613.3087771000002 L 552.4663079999998 613.3016970000001 C 552.7845452999998 614.1290285000001 553.2794793999998 614.9067995000001 553.9441521999998 615.5714724000001 C 556.5250847999998 618.1524661000001 560.7252800999998 618.1524661000001 563.3062126999998 615.5715334 C 565.8942253999999 612.9835207 565.8942863999998 608.7833254 563.3132927999999 606.2023317000001 C 560.7253410999999 603.614319 556.5250847999998 603.614319 553.9370720999999 606.2023317000001 C 553.1875603999999 606.9518434 552.6643059999999 607.8428346000001 552.3531487999999 608.7903444000001 L 529.9802849999999 608.7903444000001 L 529.9802849999999 596.1047975000001 L 564.3881218999999 596.1048585000001 C 564.7133781999999 596.9957887 565.2153923999999 597.8231202000001 565.9224846999999 598.5302735000001 C 568.5034784 601.1112061000001 572.7107536999999 601.1182252000001 575.2916863999999 598.5372925000001 C 577.8726190999998 595.9563598000002 577.8656006 591.7490845 575.284668 589.1680908 z M 540.4454956 573.4915771 C 541.2657471 572.6713255999999 542.6021728 572.6784057 543.4224243 573.4986572 C 544.2426758 574.3189087000001 544.2496948 575.6552734 543.4294433 576.4755859 C 542.6091918 577.2957763 541.265747 577.2958374000001 540.4454955 576.4755859 C 539.625244 575.6553344 539.6252441 574.3118286 540.4454956 573.4915771 z M 474.1896362 474.2279053 C 475.0098266 473.4076538 476.3533325 473.4076538 477.173584 474.2279053 C 477.9938355 475.04815679999996 477.9938355 476.39166259999996 477.173584 477.2118531 C 476.7775879 477.6078492 476.2472534 477.8270875 475.6815796 477.82702639999997 C 475.1159058 477.82702639999997 474.5855713 477.6078492 474.1896362 477.2118531 C 473.3693237 476.3916016 473.3693848 475.0481567 474.1896362 474.2279053 z M 438.296875 490.9155884 C 439.1170654 490.095398 440.4535522 490.102417 441.2737427 490.9226685 C 442.0939942 491.74291999999997 442.0939942 493.0722657 441.2737427 493.8924561 C 440.4464722 494.7197876 439.11712650000004 494.7198487 438.296875 493.8995362 C 437.4766235 493.0793457 437.4695435 491.7429199 438.296875 490.9155884 z M 361.8656616 544.3233032 C 361.0454101 545.1436157 359.7089844 545.1506347000001 358.88873290000004 544.3303833000001 C 358.06848140000005 543.5101319000001 358.06848140000005 542.1666870000001 358.88873290000004 541.3464355000001 C 359.7089844 540.5261840000001 361.0524902 540.5261840000001 361.87274170000006 541.3464355000001 C 362.6929321 542.166626 362.6858521 543.5031128 361.8656616 544.3233032 z M 343.7990723 561.1878662 C 342.9788208 562.0080566 341.6423951 562.0151367000001 340.82220459999996 561.1948852 C 340.00189209999996 560.3746337 340.00189209999996 559.0311279 340.82214359999995 558.2108764000001 C 341.64239509999993 557.3906860000001 342.98590089999993 557.3906860000001 343.8061524 558.2109374 C 344.6264039 559.0311888 344.6193237 560.3676147 343.7990723 561.1878662 z M 331.8135986 578.2220459 C 330.9933471 579.0422974 329.66400139999996 579.0422974 328.84375 578.2219849 C 328.0234985 577.4017945 328.0164185 576.0653687 328.8366699 575.2451172000001 C 329.6640014 574.4177857000001 331.0004272 574.4248657 331.82067870000003 575.2450562000001 C 332.6409302 576.0653687 332.6409302 577.3947144 331.8135986 578.2220459 z M 360.4938354 597.0876465 C 359.673645 597.907898 358.33007810000004 597.907898 357.5098876 597.0876465 C 356.68963610000003 596.267395 356.68963610000003 594.9238892 357.5098266 594.1036377 C 358.3300781 593.2833862 359.66656489999997 593.2904663 360.4868163 594.1107178000001 C 361.3070677 594.9309693000001 361.3141479 596.267395 360.4938354 597.0876465 z M 394.7885132 635.6956787 L 388.3822022 635.6956787 L 388.3821412 542.0322876 C 390.33380139999997 539.2321777 392.47631839999997 536.5522461 394.7885743 534.0419922 L 394.7885132 635.6956787 z M 426.0567627 695.7856445 C 425.2365112 696.605896 423.89306639999995 696.605896 423.07275389999995 695.7856445 C 422.25256349999995 694.9654541 422.25256349999995 693.6218872 423.07281489999997 692.8016967 C 423.89306639999995 691.9813842 425.22949209999996 691.9884643 426.04974359999994 692.8087157 C 426.8699950999999 693.6289671 426.8770142 694.9653931 426.0567627 695.7856445 z M 461.9495239 679.0979614 C 461.1292724 679.9182129000001 459.79992669999996 679.9182129000001 458.9725952 679.0908813 C 458.1524048 678.2706297999999 458.1524048 676.9412841 458.9725952 676.1210937 C 459.7929077 675.3007812 461.1293335 675.2937010999999 461.9495239 676.1139526 C 462.7768555 676.9412231 462.7697754 678.27771 461.9495239 679.0979614 z M 491.0540771 492.2944336 C 491.87432859999996 491.4742432 493.21783439999996 491.4742432 494.0380859 492.2944946 C 494.8583374 493.114685 494.8583374 494.4582519 494.0380859 495.2784424 C 493.2178344 496.0986939 491.8743286 496.0986939 491.0540771 495.27850340000003 C 490.2338257 494.458252 490.2338257 493.1146851 491.0540771 492.2944336 z M 457.1624756 462.2495117 C 457.9827271 461.42926020000004 459.3191528 461.4221802 460.1393433 462.24243160000003 C 460.9666748 463.06970210000003 460.9596558 464.40612790000006 460.1393433 465.22637940000004 C 459.3191529 466.0466309 457.98272710000003 466.05371090000006 457.1553955 465.22637940000004 C 456.335144 464.406189 456.3422241 463.0697021 457.1624756 462.2495117 z M 399.3069458 534.0773926 L 441.987915 534.0774536 C 431.7561035 535.7249756 421.9273071 540.4766846 414.05718989999997 548.3468017 C 405.16180419999995 557.2421874 400.2474365 568.6336669 399.29986569999994 580.2868041 L 399.3069458 534.0773926 z M 417.2533569 617.3745728 C 399.10192870000003 599.2231446 399.09484860000003 569.6872559 417.24627680000003 551.5358277 C 435.39770500000003 533.3843995000001 464.9335327 533.3915406 483.08496090000006 551.5429688 C 501.2363891000001 569.6943970000001 501.23638910000005 599.2231446000001 483.08496090000006 617.3745728 C 464.93353270000006 635.526001 435.4047241 635.526001 417.2533569 617.3745728 z M 446.1598511 635.335083 L 399.3069458 635.335083 L 399.3069458 588.6236572 C 400.2474365 600.2838134 405.1618042 611.6752929 414.05718989999997 620.5706787 C 422.9950562 629.5085449 434.4501953 634.4158936 446.1598511 635.335083 z M 409.1923218 677.7190552 C 408.3720703 678.5393677 407.0285034 678.5393677 406.208252 677.7190552 C 405.3880616 676.8988648 405.3951416 675.562378 406.21539310000003 674.7421264999999 C 407.03558350000003 673.9219360999999 408.36499030000004 673.9219360999999 409.18518070000005 674.7421264999999 C 410.0054932 675.5623779 410.0125732 676.8988647 409.1923218 677.7190552 z M 443.0839233 707.7640381 C 442.2636718 708.5842896 440.9272461 708.5913696 440.1069946 707.7711182 C 439.2867431 706.9508668000001 439.2868042 705.6073609 440.1069946 704.7871704 C 440.9272461 703.9669189 442.27069090000003 703.9669189 443.09100340000003 704.7871704 C 443.9111938 705.6073608 443.9041138 706.9438477 443.0839233 707.7640381 z M 409.9406738 648.225647 C 406.1890259 645.8417969 402.5432129 642.8594971 399.26446530000004 639.8464356 L 500.55047600000006 639.8464965999999 L 500.55755610000006 648.2257079999999 L 409.9406738 648.225647 z M 500.5575562 635.328064 L 454.1784058 635.335083 C 465.88812260000003 634.4158935 477.3432618 629.5085449000001 486.2810669 620.5707397000001 C 494.1723633 612.6794433000001 498.9171143 602.8294677000001 500.5576172 592.5763549000001 L 500.5575562 635.328064 z M 500.5576172 576.3411865 C 498.9171143 566.0881958 494.1724243 556.2381592 486.2811279 548.3468017 C 478.4110107 540.4766845 468.5822143 535.7249755 458.3504028 534.0774536 L 500.5576172 534.0844726 L 500.5576172 576.3411865 z M 399.6887817 529.56604 L 399.6887817 521.7878418 L 490.559082 521.7949829 C 494.12292479999996 524.1001587000001 497.4746093 526.7022705 500.5929565 529.5661011000001 L 399.6887817 529.56604 z M 505.0689087 635.3704834 L 505.0689697 534.890625 L 512.5501098 534.890625 L 512.5571899 625.7891846 C 510.3297729 629.1762695 507.8195801 632.3793945 505.0689087 635.3704834 z M 539.0736694 626.2558594 C 539.8939209 625.435669 541.2232666 625.435669 542.043518 626.2559203999999 C 542.8708495 627.0831909 542.8708495 628.4125975999999 542.0505981 629.2327880999999 C 541.2233276 630.0601195999999 539.8939209 630.0601195999999 539.0666503 629.2327880999999 C 538.2463379 628.4125366 538.2463379 627.0831909 539.0736694 626.2558594 z M 557.1332397 609.3984985 C 557.9605102 608.571167 559.2898559 608.571167 560.1171875 609.3984985 C 560.937439 610.21875 560.937439 611.5480957 560.1101685 612.3754272 C 559.289856 613.1956787 557.9605103 613.1956787 557.1402588 612.3754272 C 556.3129272 611.5480957 556.3129272 610.21875 557.1332397 609.3984985 z M 572.0956421 595.3411865 C 571.2753296 596.1614380000001 569.9389037999999 596.1685180000001 569.1115722999999 595.3411865 C 568.2913207999999 594.520935 568.2984008999999 593.1845093000001 569.1187133999999 592.3642578 C 569.9389037999999 591.5440063 571.2753296 591.5369263 572.0955810999999 592.3571777 C 572.9229126 593.1845093 572.9158325 594.5209351 572.0956421 595.3411865 z" stroke-linecap="round" />
</g>
</g>
</g>
<g transform="matrix(1.9211538461538462 0 0 1.9211538461538462 640.7786989482067 659.1643973371904)" id="text-logo"  >
<g style=""  paint-order="stroke"   >
		<g transform="matrix(1 0 0 1 0 0)" id="text-logo-path-0"  >
<linearGradient id="SVGID_173450" gradientUnits="userSpaceOnUse" gradientTransform="matrix(1 0 0 1 1.740000000000009 -31.05)"  x1="0" y1="0" x2="0" y2="49">
<stop offset="0%" style="stop-color:rgb(180,236,81);stop-opacity: 1"/>
<stop offset="100%" style="stop-color:rgb(66,147,33);stop-opacity: 1"/>
</linearGradient>
<path style="stroke: none; stroke-width: 0; stroke-dasharray: none; stroke-linecap: butt; stroke-dashoffset: 0; stroke-linejoin: miter; stroke-miterlimit: 4; fill: url(#SVGID_173450); fill-rule: nonzero; opacity: 1;"  paint-order="stroke"  transform=" translate(-178.635, 15.145)" d="M 24.69 -0.69 L 24.59 -0.76 Q 23.31 -1.81 22.34 -3.13 Q 21.37 -4.45 20.7 -5.92 L 20.7 -5.92 L 20.41 -6.68 Q 20.3 -6.89 20.11 -7.11 Q 19.93 -7.33 19.73 -7.55 Q 19.53 -7.77 19.34 -7.97 Q 19.15 -8.17 19.06 -8.36 L 19.06 -8.36 L 18.6 -9.11 L 17.03 -10.83 Q 16.99 -11.44 16.45 -12.02 Q 15.92 -12.6 15.19 -13.06 Q 14.47 -13.52 13.7 -13.79 Q 12.93 -14.07 12.43 -14.07 L 12.43 -14.07 Q 12.22 -14.07 11.9 -14 Q 11.59 -13.94 11.29 -13.8 Q 10.98 -13.67 10.76 -13.46 Q 10.54 -13.25 10.54 -12.98 L 10.54 -12.98 L 10.69 -12.18 Q 10.69 -11.88 10.61 -11.76 Q 10.54 -11.63 10.54 -11.44 L 10.54 -11.44 Q 10.54 -11.11 10.56 -10.91 Q 10.58 -10.71 10.69 -10.35 L 10.69 -10.35 L 10.5 -7.01 L 10.54 -6.57 Q 10.56 -6.21 10.56 -5.88 Q 10.56 -5.54 10.56 -5.19 L 10.56 -5.19 Q 10.56 -4.83 10.56 -4.52 Q 10.56 -4.22 10.54 -3.88 L 10.54 -3.88 Q 10.54 -3.7 10.71 -3.44 Q 10.88 -3.19 11.11 -3.09 L 11.11 -3.09 L 12.09 -2.44 Q 12.39 -2.23 12.85 -2.14 Q 13.31 -2.06 13.83 -2.02 Q 14.34 -1.97 14.85 -1.94 Q 15.37 -1.91 15.78 -1.8 Q 16.19 -1.68 16.45 -1.46 Q 16.71 -1.24 16.71 -0.84 L 16.71 -0.84 Q 16.71 -0.52 16.47 -0.26 Q 16.23 0 15.9 0.19 Q 15.58 0.38 15.22 0.48 Q 14.87 0.59 14.61 0.59 L 14.61 0.59 Q 14.28 0.59 13.99 0.51 Q 13.71 0.44 13.43 0.35 Q 13.14 0.25 12.84 0.16 Q 12.53 0.06 12.2 0 L 12.2 0 Q 11.44 -0.15 10.7 -0.26 Q 9.95 -0.38 9.01 -0.65 L 9.01 -0.65 Q 8.78 -0.65 8.51 -0.58 Q 8.25 -0.5 7.92 -0.5 L 7.92 -0.5 L 6.42 -0.65 Q 6.19 -0.65 5.93 -0.43 Q 5.67 -0.21 5.38 -0.21 L 5.38 -0.21 L 1.95 -0.34 Q 1.74 -0.55 1.74 -0.76 L 1.74 -0.76 Q 1.74 -1.26 2.24 -1.55 Q 2.73 -1.85 3.37 -2.04 Q 4.01 -2.23 4.61 -2.35 Q 5.21 -2.48 5.42 -2.65 L 5.42 -2.65 Q 5.65 -2.98 5.65 -3.41 Q 5.65 -3.84 5.73 -4.14 L 5.73 -4.14 Q 5.84 -4.18 5.95 -4.3 Q 6.07 -4.43 6.11 -4.43 L 6.11 -4.43 Q 6.3 -4.89 6.35 -5.52 Q 6.4 -6.15 6.4 -6.76 L 6.4 -6.76 L 6.4 -7.66 Q 6.4 -8.1 6.31 -8.43 Q 6.21 -8.76 6.21 -9.11 L 6.21 -9.11 L 6.66 -12.89 L 6.32 -14.93 L 6.21 -15.41 L 6.21 -15.52 Q 6.21 -15.58 6.23 -15.74 Q 6.24 -15.89 6.25 -16.07 Q 6.26 -16.25 6.28 -16.41 Q 6.3 -16.57 6.32 -16.63 L 6.32 -16.63 Q 6.57 -16.73 6.61 -16.8 Q 6.66 -16.86 6.66 -17.01 L 6.66 -17.01 L 6.4 -18.31 L 6.66 -19.44 Q 6.66 -19.46 6.71 -19.67 Q 6.76 -19.88 6.76 -19.97 L 6.76 -19.97 L 6.66 -20.51 L 6.66 -21.14 L 6.76 -22.49 L 6.4 -25.68 L 6.4 -26.12 Q 5.94 -26.69 5.5 -27.08 Q 5.06 -27.48 4.56 -27.77 Q 4.05 -28.05 3.47 -28.26 Q 2.9 -28.47 2.14 -28.66 L 2.14 -28.66 Q 1.85 -28.72 1.85 -29.02 L 1.85 -29.02 Q 1.85 -29.31 2.24 -29.52 Q 2.62 -29.73 3.13 -29.86 Q 3.63 -29.98 4.12 -30.05 Q 4.6 -30.11 4.79 -30.11 L 4.79 -30.11 L 6.03 -30 L 7.35 -30.11 L 9.2 -29.71 Q 9.76 -29.71 10.31 -29.86 Q 10.85 -30 11.51 -30 L 11.51 -30 L 13.25 -29.81 L 15.03 -30 Q 16.08 -30 17.07 -29.8 Q 18.06 -29.6 19.06 -29.31 L 19.06 -29.31 Q 19.55 -29.14 20.12 -29.05 Q 20.7 -28.95 21.14 -28.66 L 21.14 -28.66 L 21.6 -28.32 Q 22.44 -27.82 23.13 -27.37 Q 23.81 -26.92 24.28 -26.36 Q 24.75 -25.8 25.04 -25.06 Q 25.32 -24.31 25.38 -23.2 L 25.38 -23.2 Q 25.43 -22.65 25.53 -22.2 Q 25.64 -21.75 25.64 -21.21 L 25.64 -21.21 Q 25.64 -20.98 25.58 -20.85 Q 25.53 -20.72 25.45 -20.62 Q 25.36 -20.51 25.27 -20.41 Q 25.17 -20.3 25.09 -20.11 L 25.09 -20.11 Q 24.99 -19.9 24.94 -19.62 Q 24.9 -19.34 24.86 -19.05 Q 24.82 -18.77 24.75 -18.51 Q 24.69 -18.25 24.59 -18.1 L 24.59 -18.1 Q 24.23 -17.59 23.74 -17.28 Q 23.24 -16.96 22.8 -16.52 L 22.8 -16.52 Q 22.61 -16.21 22.21 -16.01 Q 21.81 -15.81 21.42 -15.62 Q 21.02 -15.43 20.71 -15.16 Q 20.41 -14.89 20.41 -14.42 L 20.41 -14.42 Q 20.41 -14.19 20.49 -14.09 Q 20.58 -13.98 20.68 -13.9 Q 20.79 -13.82 20.91 -13.73 Q 21.04 -13.65 21.14 -13.48 L 21.14 -13.48 Q 21.16 -13.42 21.33 -13.16 Q 21.5 -12.91 21.7 -12.63 Q 21.9 -12.35 22.07 -12.1 Q 22.23 -11.86 22.28 -11.84 L 22.28 -11.84 Q 23.05 -10.83 23.67 -9.78 Q 24.29 -8.73 25.09 -7.81 L 25.09 -7.81 Q 25.57 -7.26 26.05 -6.72 Q 26.52 -6.17 27.13 -5.82 L 27.13 -5.82 Q 27.29 -5.73 27.42 -5.5 Q 27.55 -5.27 27.66 -4.99 Q 27.78 -4.7 27.89 -4.43 Q 28.01 -4.16 28.16 -3.99 L 28.16 -3.99 Q 28.95 -3.42 29.64 -2.98 Q 30.32 -2.54 31.05 -1.99 L 31.05 -1.99 Q 31.39 -1.76 31.84 -1.6 Q 32.29 -1.43 32.7 -1.22 Q 33.11 -1.01 33.39 -0.7 Q 33.68 -0.4 33.68 0.06 L 33.68 0.06 Q 33.68 0.5 33.31 0.63 Q 32.94 0.76 32.5 0.76 L 32.5 0.76 L 29.42 0.76 Q 28.76 0.46 28.13 0.45 Q 27.5 0.44 26.71 0.36 L 26.71 0.36 Q 26.54 0.34 26.28 0.22 Q 26.01 0.1 25.73 -0.05 Q 25.45 -0.21 25.17 -0.39 Q 24.9 -0.57 24.69 -0.69 L 24.69 -0.69 Z M 10.69 -18.9 L 10.25 -17.01 Q 10.25 -16.52 10.42 -16.17 Q 10.6 -15.81 10.92 -15.57 Q 11.23 -15.33 11.64 -15.2 Q 12.05 -15.08 12.49 -15.08 L 12.49 -15.08 L 13.25 -15.08 Q 13.31 -15.41 13.87 -15.65 Q 14.42 -15.89 15.11 -16.07 Q 15.79 -16.25 16.45 -16.38 Q 17.11 -16.5 17.41 -16.63 L 17.41 -16.63 Q 17.83 -16.82 18.25 -17.21 Q 18.67 -17.59 19 -17.97 L 19 -17.97 L 19.69 -19.3 Q 20.01 -19.84 20.21 -20.43 Q 20.41 -21.02 20.41 -21.69 L 20.41 -21.69 Q 20.41 -21.86 20.33 -22.01 Q 20.26 -22.17 20.18 -22.33 Q 20.09 -22.49 20.02 -22.67 Q 19.95 -22.84 19.95 -23.07 L 19.95 -23.07 Q 20.07 -23.64 20.09 -23.77 Q 20.11 -23.89 20.11 -23.98 L 20.11 -23.98 L 20.11 -24.19 Q 20.11 -24.27 19.91 -24.44 Q 19.72 -24.61 19.69 -24.69 L 19.69 -24.69 Q 19.19 -25.62 18.54 -26.23 Q 17.89 -26.85 17.1 -27.22 Q 16.31 -27.59 15.4 -27.75 Q 14.49 -27.9 13.44 -27.9 L 13.44 -27.9 Q 13.35 -27.9 13.08 -27.86 Q 12.81 -27.82 12.49 -27.77 Q 12.18 -27.71 11.92 -27.66 Q 11.65 -27.61 11.59 -27.57 L 11.59 -27.57 Q 11.55 -27.53 11.47 -27.41 Q 11.4 -27.29 11.33 -27.17 Q 11.25 -27.04 11.19 -26.93 Q 11.13 -26.81 11.11 -26.77 L 11.11 -26.77 L 11.11 -26.18 Q 11.11 -25.05 10.9 -23.97 Q 10.69 -22.89 10.39 -21.75 L 10.39 -21.75 L 10.1 -21.33 L 10.54 -20.79 Q 10.56 -20.68 10.6 -20.36 Q 10.65 -20.03 10.69 -19.84 L 10.69 -19.84 L 10.69 -19.55 Q 10.65 -19.55 10.59 -19.46 Q 10.54 -19.38 10.54 -19.3 L 10.54 -19.3 Q 10.54 -19.25 10.59 -19.09 Q 10.65 -18.92 10.69 -18.9 L 10.69 -18.9 Z M 42.04 -10.54 L 42.04 -10.54 Q 42.04 -10.81 42.18 -11.08 Q 42.33 -11.34 42.33 -11.65 L 42.33 -11.65 L 41.79 -13.98 Q 41.79 -14.59 41.86 -15.35 Q 41.93 -16.1 42.04 -16.67 L 42.04 -16.67 Q 42.21 -17.2 42.31 -17.79 Q 42.42 -18.39 42.48 -18.99 Q 42.54 -19.59 42.56 -20.12 Q 42.58 -20.66 42.58 -21.04 L 42.58 -21.04 Q 42.81 -21.33 43.05 -21.54 Q 43.28 -21.75 43.47 -21.95 Q 43.65 -22.15 43.78 -22.41 Q 43.91 -22.68 43.97 -23.07 L 43.97 -23.07 L 45.12 -24.27 L 45.67 -24.52 Q 45.8 -24.59 45.96 -24.82 Q 46.13 -25.05 46.31 -25.35 Q 46.49 -25.66 46.67 -25.94 Q 46.85 -26.22 47.01 -26.37 L 47.01 -26.37 Q 48.21 -27.23 49.38 -27.97 Q 50.54 -28.7 51.93 -29.39 L 51.93 -29.39 Q 52.03 -29.42 52.14 -29.46 L 52.14 -29.46 Q 52.24 -29.48 52.34 -29.5 Q 52.43 -29.52 52.49 -29.52 L 52.49 -29.52 Q 52.83 -29.56 53.04 -29.68 Q 53.25 -29.79 53.44 -29.91 Q 53.63 -30.02 53.85 -30.12 Q 54.07 -30.21 54.38 -30.21 L 54.38 -30.21 L 55.41 -30.05 L 55.73 -30.21 L 56.5 -30.44 Q 57.45 -30.57 58.34 -30.59 Q 59.23 -30.61 60.16 -30.61 L 60.16 -30.61 Q 60.45 -30.61 61.13 -30.49 Q 61.82 -30.36 62.56 -30.18 Q 63.31 -30 63.94 -29.81 Q 64.57 -29.63 64.78 -29.52 L 64.78 -29.52 Q 65.39 -29.1 65.88 -28.51 Q 66.37 -27.92 66.92 -27.5 L 66.92 -27.5 Q 67.25 -27.25 67.58 -27.08 Q 67.9 -26.92 68.22 -26.76 Q 68.53 -26.6 68.85 -26.42 Q 69.16 -26.25 69.46 -25.97 L 69.46 -25.97 Q 69.56 -25.93 69.71 -25.8 Q 69.86 -25.68 70 -25.52 Q 70.15 -25.36 70.27 -25.23 Q 70.38 -25.09 70.45 -25.03 L 70.45 -25.03 L 70.59 -24.38 Q 70.63 -24.12 70.81 -23.9 Q 70.99 -23.68 71.21 -23.46 Q 71.43 -23.24 71.63 -23.03 Q 71.83 -22.82 71.89 -22.59 L 71.89 -22.59 Q 72.06 -22.34 72.27 -21.95 Q 72.48 -21.56 72.69 -21.12 Q 72.9 -20.68 73.05 -20.25 Q 73.2 -19.82 73.24 -19.51 L 73.24 -19.51 L 73.24 -18.27 Q 73.32 -17.91 73.4 -17.7 Q 73.47 -17.49 73.62 -17.26 L 73.62 -17.26 Q 73.7 -17.03 73.76 -16.81 Q 73.83 -16.59 73.83 -16.23 L 73.83 -16.23 Q 73.83 -16.19 73.8 -16.08 Q 73.78 -15.98 73.77 -15.85 Q 73.76 -15.73 73.74 -15.61 Q 73.72 -15.5 73.72 -15.43 L 73.72 -15.43 L 73.93 -14.89 L 73.83 -13.98 Q 73.87 -13.88 73.87 -13.73 Q 73.87 -13.58 73.87 -13.4 L 73.87 -13.4 Q 73.87 -12.72 73.78 -12.21 Q 73.7 -11.69 73.62 -11.55 L 73.62 -11.55 Q 73.38 -10.88 73.09 -10.31 Q 72.8 -9.74 72.48 -9.19 Q 72.17 -8.63 71.86 -8.04 Q 71.56 -7.45 71.29 -6.76 L 71.29 -6.76 Q 71.16 -6.63 71.03 -6.57 Q 70.91 -6.51 70.78 -6.47 Q 70.66 -6.42 70.53 -6.34 Q 70.4 -6.26 70.3 -6.11 L 70.3 -6.11 Q 70.24 -6 70.16 -5.84 Q 70.09 -5.67 69.99 -5.47 Q 69.9 -5.27 69.79 -5.08 Q 69.69 -4.89 69.56 -4.77 L 69.56 -4.77 L 69.14 -4.51 Q 68.98 -4.51 68.82 -4.36 Q 68.66 -4.2 68.66 -4.07 L 68.66 -4.07 Q 68.51 -3.88 68.24 -3.56 Q 67.97 -3.23 67.65 -2.89 Q 67.34 -2.54 67.04 -2.25 Q 66.75 -1.95 66.56 -1.81 L 66.56 -1.81 Q 66.41 -1.72 66.31 -1.66 L 66.31 -1.66 Q 66.2 -1.62 66.11 -1.57 Q 66.02 -1.53 65.97 -1.53 L 65.97 -1.53 L 63.64 -0.73 Q 63.5 -0.57 63.43 -0.47 Q 63.37 -0.38 63.31 -0.34 Q 63.24 -0.29 63.16 -0.26 Q 63.08 -0.23 62.89 -0.19 L 62.89 -0.19 L 61.5 -0.06 L 60.01 0.59 Q 59.82 0.63 59.63 0.65 L 59.63 0.65 Q 59.46 0.67 59.29 0.68 Q 59.11 0.69 58.94 0.69 L 58.94 0.69 Q 58.71 0.69 58.38 0.64 Q 58.06 0.59 57.7 0.52 Q 57.34 0.46 57 0.39 Q 56.65 0.31 56.38 0.25 L 56.38 0.25 Q 55.96 0.15 55.5 0.13 Q 55.03 0.1 54.57 0.1 L 54.57 0.1 Q 53.77 0.1 53.04 0.05 Q 52.3 0 51.59 -0.29 L 51.59 -0.29 L 51.28 -0.73 Q 51.05 -0.8 50.73 -0.83 Q 50.42 -0.86 50.09 -0.92 Q 49.76 -0.99 49.48 -1.09 Q 49.2 -1.2 49.05 -1.41 L 49.05 -1.41 Q 48.74 -1.78 48.55 -2.05 Q 48.36 -2.31 48.17 -2.51 Q 47.98 -2.71 47.7 -2.89 Q 47.41 -3.07 46.91 -3.28 L 46.91 -3.28 L 46.26 -3.42 Q 46.05 -3.53 45.8 -3.84 Q 45.54 -4.16 45.29 -4.58 Q 45.04 -5 44.78 -5.48 Q 44.52 -5.96 44.31 -6.41 Q 44.1 -6.87 43.93 -7.22 Q 43.76 -7.58 43.68 -7.77 L 43.68 -7.77 Q 43.49 -8.27 43.2 -8.49 Q 42.92 -8.71 42.67 -8.91 Q 42.42 -9.11 42.23 -9.45 Q 42.04 -9.78 42.04 -10.54 Z M 46.47 -15.22 L 46.47 -15.22 Q 46.47 -14.8 46.63 -14.45 Q 46.78 -14.09 46.99 -13.75 Q 47.2 -13.42 47.38 -13.08 Q 47.56 -12.74 47.6 -12.35 L 47.6 -12.35 Q 47.64 -12.28 47.64 -12.09 L 47.64 -12.09 L 47.6 -11.09 Q 47.6 -10.9 47.64 -10.67 Q 47.69 -10.44 47.85 -10.2 L 47.85 -10.2 Q 47.98 -9.97 48.13 -9.88 Q 48.27 -9.78 48.41 -9.69 Q 48.55 -9.6 48.66 -9.47 Q 48.78 -9.34 48.84 -9.07 L 48.84 -9.07 L 48.86 -8.86 Q 48.86 -8.71 48.85 -8.59 Q 48.84 -8.46 48.84 -8.21 L 48.84 -8.21 Q 48.84 -7.85 48.95 -7.62 L 48.95 -7.62 Q 49.03 -7.39 49.26 -7.33 Q 49.49 -7.26 49.64 -7.08 L 49.64 -7.08 Q 49.95 -6.26 50.27 -5.72 Q 50.58 -5.19 51.13 -4.72 L 51.13 -4.72 Q 51.86 -4.14 52.63 -3.59 Q 53.4 -3.04 54.22 -2.61 Q 55.03 -2.18 55.94 -1.93 Q 56.84 -1.68 57.85 -1.68 L 57.85 -1.68 Q 58.12 -1.68 58.31 -1.72 Q 58.5 -1.76 58.68 -1.83 Q 58.86 -1.89 59.04 -1.95 Q 59.23 -2.02 59.51 -2.08 L 59.51 -2.08 Q 60.09 -2.16 60.84 -2.28 Q 61.59 -2.39 62.19 -2.39 L 62.19 -2.39 Q 62.63 -2.73 63.18 -3.02 Q 63.73 -3.32 64.26 -3.64 Q 64.8 -3.97 65.25 -4.37 Q 65.7 -4.77 65.97 -5.31 L 65.97 -5.31 L 67.07 -7.52 Q 67.36 -7.73 67.5 -8.06 Q 67.63 -8.4 67.72 -8.76 Q 67.8 -9.11 67.89 -9.47 Q 67.99 -9.83 68.22 -10.1 L 68.22 -10.1 L 68.66 -13 Q 68.66 -13.33 68.61 -13.63 Q 68.56 -13.92 68.56 -14.34 L 68.56 -14.34 L 68.81 -15.03 Q 68.81 -15.37 68.65 -15.84 Q 68.49 -16.31 68.27 -16.81 Q 68.05 -17.3 67.82 -17.77 Q 67.59 -18.25 67.42 -18.56 L 67.42 -18.56 L 67.21 -18.92 L 67.32 -19.51 Q 67.32 -19.82 67.21 -20.06 Q 67.11 -20.3 66.98 -20.5 Q 66.86 -20.7 66.73 -20.9 Q 66.6 -21.1 66.56 -21.35 L 66.56 -21.35 L 66.37 -22.38 Q 66.18 -22.97 65.6 -23.76 Q 65.01 -24.54 64.27 -25.3 Q 63.54 -26.06 62.78 -26.63 Q 62.03 -27.21 61.5 -27.36 L 61.5 -27.36 Q 61.19 -27.46 60.64 -27.48 Q 60.09 -27.5 59.76 -27.5 L 59.76 -27.5 L 59.21 -28.18 Q 59.07 -28.24 58.7 -28.36 Q 58.33 -28.47 57.92 -28.59 Q 57.51 -28.7 57.11 -28.78 Q 56.71 -28.85 56.5 -28.85 L 56.5 -28.85 Q 56.08 -28.85 55.42 -28.76 Q 54.76 -28.68 54.07 -28.51 Q 53.38 -28.34 52.79 -28.09 Q 52.2 -27.84 51.93 -27.5 L 51.93 -27.5 L 51.82 -27.17 Q 51.65 -27.04 51.48 -26.97 Q 51.3 -26.9 51.14 -26.8 Q 50.98 -26.71 50.87 -26.57 Q 50.75 -26.43 50.69 -26.16 L 50.69 -26.16 Q 50.21 -26.04 50.03 -25.93 Q 49.85 -25.83 49.77 -25.7 Q 49.7 -25.57 49.62 -25.42 Q 49.53 -25.26 49.24 -25.03 L 49.24 -25.03 Q 48.42 -24.48 47.92 -23.62 Q 47.41 -22.76 47.15 -21.75 Q 46.89 -20.74 46.79 -19.68 Q 46.7 -18.62 46.7 -17.72 L 46.7 -17.72 L 46.8 -16.23 Q 46.8 -16.04 46.64 -15.78 Q 46.47 -15.52 46.47 -15.22 Z M 85.08 -0.69 L 85.08 -0.69 L 85.08 -0.8 Q 85.15 -0.86 85.42 -0.98 Q 85.69 -1.09 86.07 -1.22 Q 86.45 -1.34 86.87 -1.47 Q 87.29 -1.6 87.67 -1.7 Q 88.04 -1.81 88.31 -1.89 Q 88.57 -1.97 88.61 -1.99 L 88.61 -1.99 Q 88.99 -2.52 89.18 -3.08 Q 89.37 -3.63 89.45 -4.21 Q 89.53 -4.79 89.57 -5.39 Q 89.6 -5.98 89.66 -6.61 L 89.66 -6.61 Q 89.81 -7.1 89.9 -7.54 Q 90 -7.98 90 -8.46 L 90 -8.46 Q 90 -8.82 89.83 -9.09 Q 89.66 -9.36 89.66 -9.7 L 89.66 -9.7 Q 89.66 -10.25 89.83 -10.8 Q 90 -11.36 90 -11.84 L 90 -11.84 Q 90 -12.01 89.98 -12.13 Q 89.95 -12.24 89.92 -12.35 Q 89.89 -12.45 89.87 -12.56 Q 89.85 -12.66 89.85 -12.83 L 89.85 -12.83 Q 89.85 -13.04 89.9 -13.2 Q 89.95 -13.35 90.03 -13.49 Q 90.1 -13.63 90.15 -13.76 Q 90.21 -13.9 90.21 -14.07 L 90.21 -14.07 L 89.66 -16.21 Q 89.66 -16.52 89.83 -16.74 Q 90 -16.96 90 -17.32 L 90 -17.32 L 89.85 -17.95 L 89.85 -19.3 Q 89.85 -19.36 89.81 -19.47 Q 89.77 -19.59 89.7 -19.72 Q 89.64 -19.84 89.6 -19.95 Q 89.56 -20.05 89.56 -20.09 L 89.56 -20.09 Q 89.56 -20.64 89.66 -21.06 Q 89.77 -21.48 89.77 -21.9 L 89.77 -21.9 L 89.66 -25.24 Q 89.56 -25.45 89.43 -25.57 Q 89.3 -25.7 89.16 -25.78 Q 89.01 -25.87 88.83 -25.96 Q 88.65 -26.06 88.46 -26.22 L 88.46 -26.22 Q 88.11 -26.75 87.52 -26.94 Q 86.93 -27.13 86.36 -27.24 Q 85.8 -27.36 85.39 -27.55 Q 84.98 -27.74 84.98 -28.26 L 84.98 -28.26 Q 84.98 -28.64 85.28 -28.84 Q 85.59 -29.04 86.01 -29.13 Q 86.43 -29.23 86.85 -29.25 Q 87.27 -29.27 87.52 -29.27 L 87.52 -29.27 L 88.27 -29.27 Q 88.65 -29.27 89.09 -29.26 Q 89.53 -29.25 89.92 -29.22 Q 90.31 -29.18 90.58 -29.13 Q 90.86 -29.08 90.9 -29.02 L 90.9 -29.02 L 97.68 -29.27 L 99.4 -29.16 L 100.26 -29.27 Q 101.02 -28.95 101.75 -28.76 Q 102.49 -28.58 103.17 -28.32 Q 103.85 -28.07 104.47 -27.68 Q 105.09 -27.29 105.6 -26.58 L 105.6 -26.58 Q 106.06 -25.91 106.38 -25.42 Q 106.71 -24.92 106.92 -24.43 Q 107.13 -23.94 107.22 -23.37 Q 107.32 -22.8 107.32 -22 L 107.32 -22 Q 107.32 -21.4 107.17 -20.65 Q 107.02 -19.9 106.73 -19.3 L 106.73 -19.3 Q 106.5 -18.94 106.26 -18.71 Q 106.02 -18.48 105.74 -18.29 Q 105.47 -18.1 105.17 -17.93 Q 104.86 -17.76 104.53 -17.55 L 104.53 -17.55 L 104.29 -17.11 Q 104.15 -16.92 103.76 -16.84 Q 103.37 -16.75 102.97 -16.65 Q 102.57 -16.54 102.26 -16.36 Q 101.94 -16.17 101.94 -15.77 L 101.94 -15.77 Q 101.94 -15.58 102.32 -15.43 Q 102.7 -15.29 103.19 -15.16 Q 103.69 -15.03 104.16 -14.93 Q 104.63 -14.82 104.84 -14.74 L 104.84 -14.74 Q 105.45 -14.42 105.92 -14.1 Q 106.39 -13.77 106.94 -13.44 L 106.94 -13.44 L 107.63 -12.98 Q 107.93 -12.41 108.33 -11.82 Q 108.72 -11.23 109.09 -10.61 Q 109.46 -9.99 109.71 -9.33 Q 109.96 -8.67 109.96 -7.96 L 109.96 -7.96 Q 109.96 -7.18 109.91 -6.49 Q 109.86 -5.79 109.56 -5.27 L 109.56 -5.27 Q 109.46 -5.08 109.17 -4.73 Q 108.87 -4.39 108.48 -3.96 Q 108.09 -3.53 107.64 -3.07 Q 107.19 -2.6 106.77 -2.22 Q 106.35 -1.83 105.98 -1.54 Q 105.62 -1.26 105.39 -1.2 L 105.39 -1.2 Q 104.65 -1.2 104.38 -1.1 Q 104.11 -1.01 104 -1.01 L 104 -1.01 Q 102.89 -0.65 101.99 -0.42 Q 101.08 -0.19 99.97 -0.1 L 99.97 -0.1 L 99.02 0.21 Q 98.46 0 97.87 0 L 97.87 0 Q 97.16 0 96.59 0.21 L 96.59 0.21 Q 95.37 0.1 94.2 0.02 Q 93.02 -0.06 91.74 -0.06 L 91.74 -0.06 Q 90.73 -0.06 89.69 0.14 Q 88.65 0.34 87.52 0.34 L 87.52 0.34 Q 87.41 0.34 87.03 0.28 Q 86.64 0.23 86.21 0.1 Q 85.78 -0.02 85.43 -0.22 Q 85.08 -0.42 85.08 -0.69 Z M 94.03 -7.12 L 93.88 -6.36 L 94.17 -5.38 Q 94.24 -4.56 94.26 -4.1 Q 94.28 -3.65 94.37 -3.39 Q 94.47 -3.13 94.72 -2.95 Q 94.97 -2.77 95.52 -2.5 L 95.52 -2.5 Q 95.73 -2.39 95.85 -2.31 Q 95.98 -2.23 96.13 -2.14 L 96.13 -2.14 Q 96.57 -1.95 96.98 -1.7 Q 97.39 -1.45 97.93 -1.45 L 97.93 -1.45 Q 98.33 -1.45 98.57 -1.57 Q 98.81 -1.7 99.15 -1.7 L 99.15 -1.7 L 100.12 -1.6 Q 100.37 -1.6 100.67 -1.72 Q 100.98 -1.85 101.27 -2.04 Q 101.57 -2.23 101.83 -2.44 Q 102.09 -2.65 102.26 -2.83 L 102.26 -2.83 Q 102.36 -2.88 102.56 -3.05 Q 102.76 -3.23 102.97 -3.44 Q 103.18 -3.65 103.36 -3.85 Q 103.54 -4.05 103.64 -4.14 L 103.64 -4.14 Q 103.73 -4.43 103.91 -4.7 Q 104.08 -4.98 104.24 -5.26 Q 104.4 -5.54 104.53 -5.85 Q 104.65 -6.15 104.65 -6.51 L 104.65 -6.51 Q 104.65 -7.43 104.58 -8.37 Q 104.5 -9.3 104.27 -10.17 Q 104.04 -11.04 103.61 -11.83 Q 103.18 -12.62 102.45 -13.23 L 102.45 -13.23 Q 101.78 -13.71 101.13 -14.01 Q 100.49 -14.32 99.68 -14.42 L 99.68 -14.42 L 98.6 -14.42 Q 97.74 -14.51 97.05 -14.69 Q 96.36 -14.87 95.64 -14.87 L 95.64 -14.87 L 94.43 -14.74 Q 94.38 -14.66 94.31 -14.5 Q 94.24 -14.34 94.16 -14.16 Q 94.09 -13.98 94.02 -13.84 Q 93.94 -13.69 93.88 -13.63 L 93.88 -13.63 Q 93.88 -13.29 93.95 -13.09 Q 94.03 -12.89 94.03 -12.64 L 94.03 -12.64 L 93.73 -9.7 Q 93.73 -9.13 93.88 -8.48 Q 94.03 -7.83 94.03 -7.12 L 94.03 -7.12 Z M 94.3 -15.98 L 94.3 -15.98 L 94.57 -15.62 L 95.77 -16.02 Q 96.51 -16.1 97.31 -16.17 Q 98.12 -16.23 98.88 -16.23 L 98.88 -16.23 Q 99.28 -16.23 99.42 -16.23 Q 99.57 -16.23 99.68 -16.21 L 99.68 -16.21 Q 100.28 -16.71 100.78 -17.35 Q 101.27 -17.99 101.66 -18.69 Q 102.05 -19.38 102.36 -20.11 Q 102.68 -20.85 102.95 -21.54 L 102.95 -21.54 L 102.95 -21.9 L 102.66 -22.44 Q 102.45 -23.2 102.13 -23.96 Q 101.82 -24.71 101.34 -25.34 Q 100.87 -25.97 100.23 -26.4 Q 99.59 -26.83 98.73 -26.92 L 98.73 -26.92 Q 98.69 -26.92 98.55 -26.94 Q 98.42 -26.96 98.27 -26.97 Q 98.12 -26.98 98 -27 Q 97.87 -27.02 97.83 -27.02 L 97.83 -27.02 Q 97.55 -27.06 97.31 -27.19 Q 97.07 -27.32 96.84 -27.46 Q 96.61 -27.61 96.35 -27.71 Q 96.09 -27.82 95.79 -27.82 L 95.79 -27.82 Q 95.64 -27.82 95.36 -27.67 Q 95.08 -27.53 94.79 -27.31 Q 94.51 -27.08 94.29 -26.85 Q 94.07 -26.62 94.03 -26.43 L 94.03 -26.43 L 94.03 -25.57 L 94.17 -23.89 Q 94.17 -23.56 94.1 -23.19 Q 94.03 -22.82 93.95 -22.46 Q 93.88 -22.09 93.81 -21.74 Q 93.73 -21.4 93.73 -21.1 L 93.73 -21.1 Q 93.73 -19.74 93.96 -18.46 Q 94.2 -17.17 94.3 -15.98 Z M 120.95 -1.24 L 120.95 -1.24 Q 120.95 -1.64 121.25 -1.89 Q 121.56 -2.14 121.99 -2.3 Q 122.42 -2.46 122.86 -2.52 Q 123.3 -2.58 123.59 -2.58 L 123.59 -2.58 L 125.29 -2.58 Q 125.48 -2.62 125.78 -2.81 Q 126.07 -3 126.35 -3.26 Q 126.64 -3.53 126.86 -3.85 Q 127.08 -4.18 127.12 -4.47 L 127.12 -4.47 Q 127.18 -4.91 127.18 -5.42 L 127.18 -5.42 Q 127.18 -5.82 127.12 -6.26 L 127.12 -6.26 L 127.41 -6.72 Q 127.12 -7.79 127.02 -8.86 Q 126.91 -9.93 126.91 -10.96 L 126.91 -10.96 Q 126.91 -11.17 126.94 -11.48 Q 126.97 -11.8 127.03 -12.13 Q 127.08 -12.45 127.14 -12.76 Q 127.2 -13.06 127.27 -13.29 L 127.27 -13.29 Q 127.29 -13.35 127.33 -13.44 L 127.33 -13.44 Q 127.41 -13.61 127.41 -13.65 L 127.41 -13.65 Q 127.48 -13.79 127.56 -13.92 L 127.56 -13.92 Q 127.6 -14.03 127.66 -14.14 Q 127.71 -14.26 127.71 -14.32 L 127.71 -14.32 Q 127.71 -14.49 127.54 -14.61 Q 127.37 -14.74 127.27 -14.74 L 127.27 -14.74 Q 127.31 -15.43 127.34 -16.14 Q 127.37 -16.84 127.37 -17.51 L 127.37 -17.51 Q 127.37 -18.22 127.34 -18.91 Q 127.31 -19.59 127.27 -20.3 L 127.27 -20.3 Q 127.16 -20.6 127.14 -20.73 Q 127.12 -20.87 127.12 -21.1 L 127.12 -21.1 L 127.27 -22.34 L 127.12 -24.59 Q 127.12 -24.84 126.9 -25.15 Q 126.68 -25.47 126.39 -25.75 Q 126.09 -26.04 125.79 -26.23 Q 125.48 -26.43 125.29 -26.48 L 125.29 -26.48 L 123.78 -26.48 L 123.61 -26.56 Q 123.55 -26.6 123.49 -26.63 Q 123.43 -26.67 123.38 -26.67 L 123.38 -26.67 Q 123.09 -26.75 122.72 -26.8 Q 122.35 -26.85 122.04 -26.98 Q 121.72 -27.11 121.51 -27.35 Q 121.31 -27.59 121.31 -28.05 L 121.31 -28.05 Q 121.31 -28.43 121.41 -28.63 Q 121.51 -28.83 121.71 -28.92 Q 121.91 -29.02 122.2 -29.04 Q 122.48 -29.06 122.84 -29.06 L 122.84 -29.06 Q 123.4 -29.06 123.93 -29.02 Q 124.45 -28.97 124.83 -28.7 L 124.83 -28.7 Q 124.94 -28.72 125.04 -28.74 Q 125.15 -28.76 125.23 -28.76 L 125.23 -28.76 L 125.63 -28.76 Q 126.64 -28.76 127.72 -28.61 Q 128.8 -28.45 129.7 -28.37 L 129.7 -28.37 L 130.9 -28.16 Q 131.17 -28.16 131.46 -28.25 Q 131.74 -28.34 132.04 -28.46 Q 132.35 -28.58 132.64 -28.67 Q 132.94 -28.76 133.23 -28.76 L 133.23 -28.76 Q 133.44 -28.76 133.59 -28.66 Q 133.73 -28.55 134.05 -28.55 L 134.05 -28.55 Q 134.15 -28.55 134.25 -28.66 Q 134.34 -28.76 134.57 -28.76 L 134.57 -28.76 Q 134.78 -28.76 134.9 -28.74 Q 135.02 -28.72 135.12 -28.55 L 135.12 -28.55 L 135.94 -28.55 Q 136.38 -28.55 136.86 -28.71 Q 137.35 -28.87 137.83 -28.87 L 137.83 -28.87 Q 138.12 -28.87 138.29 -28.83 Q 138.46 -28.79 138.77 -28.55 L 138.77 -28.55 L 142.55 -28.37 Q 142.83 -28.34 143.06 -28.3 L 143.06 -28.3 Q 143.27 -28.26 143.5 -28.23 Q 143.73 -28.2 143.9 -28.16 L 143.9 -28.16 Q 144 -28.16 144.15 -28.13 Q 144.3 -28.11 144.42 -28.05 Q 144.55 -27.99 144.64 -27.88 Q 144.74 -27.78 144.74 -27.61 L 144.74 -27.61 Q 144.8 -27.42 144.86 -26.99 Q 144.93 -26.56 144.98 -26.08 Q 145.03 -25.59 145.06 -25.17 Q 145.09 -24.75 145.09 -24.59 L 145.09 -24.59 Q 145.2 -23.87 145.26 -23.14 Q 145.32 -22.4 145.32 -21.69 L 145.32 -21.69 L 144.99 -21.69 Q 144.53 -21.69 144.23 -22.4 L 144.23 -22.4 Q 144.04 -22.65 143.96 -22.75 Q 143.88 -22.84 143.83 -22.95 L 143.83 -22.95 Q 143.54 -23.35 143.24 -23.82 Q 142.93 -24.29 142.68 -24.71 Q 142.43 -25.13 142.24 -25.48 Q 142.05 -25.83 141.99 -25.97 L 141.99 -25.97 Q 141.73 -26.08 141.46 -26.13 Q 141.19 -26.18 140.94 -26.23 Q 140.68 -26.29 140.47 -26.38 Q 140.26 -26.48 140.12 -26.71 L 140.12 -26.71 Q 139.95 -27.02 139.47 -27.02 L 139.47 -27.02 Q 139.28 -27.02 139.26 -26.98 L 139.26 -26.98 Q 139.15 -26.96 138.99 -26.94 Q 138.84 -26.92 138.67 -26.92 L 138.67 -26.92 Q 138.31 -26.92 137.95 -26.95 Q 137.6 -26.98 137.37 -26.98 L 137.37 -26.98 Q 137.22 -26.98 137.18 -27.02 Q 137.14 -27.06 137.03 -27.06 L 137.03 -27.06 Q 136.99 -27.06 136.96 -27.08 Q 136.93 -27.11 136.88 -27.13 L 136.88 -27.13 Q 136.42 -27.19 135.96 -27.21 Q 135.5 -27.23 135.04 -27.23 L 135.04 -27.23 Q 134.57 -27.23 134.13 -27.21 Q 133.69 -27.19 133.23 -27.13 L 133.23 -27.13 Q 133.08 -27.08 132.89 -26.96 Q 132.71 -26.83 132.53 -26.65 Q 132.35 -26.48 132.2 -26.29 Q 132.06 -26.1 132.01 -25.93 L 132.01 -25.93 Q 131.85 -25.22 131.8 -24.32 Q 131.76 -23.43 131.76 -22.49 L 131.76 -22.49 L 131.76 -20.3 Q 131.57 -20.07 131.53 -19.83 Q 131.49 -19.59 131.49 -19.25 L 131.49 -19.25 L 131.49 -18.52 Q 131.49 -18.01 131.52 -17.53 Q 131.55 -17.05 131.68 -16.59 Q 131.8 -16.13 132.04 -15.69 Q 132.29 -15.26 132.71 -14.87 L 132.71 -14.87 L 136.09 -14.74 Q 136.49 -14.74 136.86 -14.89 L 136.86 -14.89 Q 136.97 -14.93 137.12 -14.96 Q 137.26 -14.99 137.41 -14.99 L 137.41 -14.99 L 138.23 -14.97 Q 138.58 -14.97 138.88 -15.18 L 138.88 -15.18 Q 139.05 -15.22 139.27 -15.34 Q 139.49 -15.45 139.71 -15.61 Q 139.93 -15.77 140.12 -15.93 Q 140.31 -16.08 140.41 -16.21 L 140.41 -16.21 Q 140.54 -16.46 140.69 -17.03 Q 140.85 -17.59 141.05 -18.16 Q 141.25 -18.73 141.49 -19.17 Q 141.73 -19.61 142.05 -19.61 L 142.05 -19.61 Q 142.32 -19.61 142.55 -19.21 L 142.55 -19.21 L 142.55 -17.28 Q 142.55 -17.01 142.5 -16.8 Q 142.45 -16.59 142.3 -16.21 L 142.3 -16.21 L 142.05 -15.87 L 142.15 -15.18 Q 142.15 -15.1 142.2 -14.69 Q 142.24 -14.28 142.28 -13.74 Q 142.32 -13.21 142.36 -12.65 Q 142.41 -12.09 142.41 -11.74 L 142.41 -11.74 L 142.3 -10.96 Q 142.3 -10.6 142.43 -10.35 Q 142.55 -10.1 142.55 -9.89 L 142.55 -9.89 Q 142.55 -9.34 142.35 -8.94 Q 142.15 -8.55 141.61 -8.55 L 141.61 -8.55 Q 141.34 -8.55 141.19 -8.64 Q 141.04 -8.73 140.97 -8.87 Q 140.89 -9.01 140.87 -9.19 Q 140.85 -9.36 140.85 -9.55 L 140.85 -9.55 Q 140.85 -9.7 140.85 -9.82 Q 140.85 -9.93 140.81 -10.06 L 140.81 -10.06 L 140.22 -11.09 L 140.22 -11.74 Q 140.2 -12.01 139.74 -12.26 Q 139.28 -12.51 138.58 -12.72 Q 137.89 -12.93 137.06 -13.1 Q 136.23 -13.27 135.45 -13.4 Q 134.66 -13.52 134.02 -13.58 Q 133.38 -13.65 133.08 -13.65 L 133.08 -13.65 Q 132.71 -13.65 132.42 -13.41 Q 132.14 -13.16 131.94 -12.82 Q 131.74 -12.47 131.64 -12.08 Q 131.53 -11.69 131.49 -11.4 L 131.49 -11.4 L 131.49 -9.74 L 131.76 -6.51 L 131.76 -4.68 Q 131.8 -4.2 132.15 -3.72 Q 132.5 -3.23 132.98 -2.83 Q 133.46 -2.44 134.01 -2.18 Q 134.55 -1.93 134.99 -1.89 L 134.99 -1.89 L 136.49 -1.78 L 136.88 -1.64 L 138.23 -1.64 Q 138.73 -1.64 139.15 -1.64 Q 139.57 -1.64 139.99 -1.66 Q 140.41 -1.68 140.85 -1.7 Q 141.29 -1.72 141.86 -1.78 L 141.86 -1.78 L 143.54 -2.44 Q 143.88 -2.67 144.36 -3.11 Q 144.84 -3.55 145.31 -4.04 Q 145.79 -4.54 146.19 -5.02 Q 146.58 -5.5 146.77 -5.82 L 146.77 -5.82 Q 146.88 -5.88 146.98 -6.14 Q 147.09 -6.4 147.22 -6.71 Q 147.36 -7.01 147.54 -7.24 Q 147.72 -7.47 147.97 -7.47 L 147.97 -7.47 Q 148.2 -7.47 148.31 -7.29 Q 148.41 -7.1 148.41 -6.91 L 148.41 -6.91 L 148.03 -5.58 Q 147.72 -4.49 147.42 -3.37 Q 147.13 -2.25 147.03 -1.09 L 147.03 -1.09 Q 146.58 -0.42 145.91 -0.28 Q 145.24 -0.15 144.53 -0.15 L 144.53 -0.15 Q 144.3 -0.15 144.06 -0.15 Q 143.83 -0.15 143.64 -0.1 L 143.64 -0.1 L 143.2 0 Q 142.99 0 142.87 -0.04 Q 142.74 -0.08 142.64 -0.13 Q 142.53 -0.17 142.43 -0.21 Q 142.32 -0.25 142.15 -0.25 L 142.15 -0.25 L 140.81 -0.1 L 140.12 -0.25 L 136.88 0 Q 135.35 0 133.82 -0.13 Q 132.29 -0.25 130.65 -0.25 L 130.65 -0.25 L 127.96 0 L 126.07 -0.1 Q 125.69 -0.1 125.34 -0.02 Q 124.98 0.06 124.64 0.17 Q 124.31 0.27 123.99 0.36 Q 123.68 0.44 123.38 0.44 L 123.38 0.44 Q 123.03 0.44 122.61 0.34 Q 122.19 0.23 121.82 0.02 Q 121.45 -0.19 121.2 -0.5 Q 120.95 -0.82 120.95 -1.24 Z M 160.51 -9.22 L 160.11 -11.11 Q 160.11 -11.17 160.08 -11.3 Q 160.05 -11.42 160.01 -11.56 Q 159.98 -11.69 159.95 -11.81 Q 159.92 -11.93 159.92 -11.99 L 159.92 -11.99 Q 159.88 -12.14 159.88 -12.22 Q 159.88 -12.3 159.88 -12.39 L 159.88 -12.39 Q 159.88 -12.56 159.92 -12.66 Q 159.96 -12.77 160.07 -12.98 L 160.07 -12.98 L 159.82 -17.17 L 159.92 -18.35 Q 159.96 -18.41 160 -18.5 L 160 -18.5 Q 160.05 -18.56 160.07 -18.61 Q 160.09 -18.67 160.11 -18.71 L 160.11 -18.71 Q 160.3 -19.15 160.4 -19.55 Q 160.51 -19.95 160.66 -20.39 L 160.66 -20.39 Q 160.76 -20.81 160.76 -21.19 L 160.76 -21.19 Q 160.76 -21.65 160.93 -21.94 L 160.93 -21.94 Q 161.2 -22.57 161.55 -23.15 Q 161.89 -23.73 162.4 -24.5 L 162.4 -24.5 Q 162.44 -24.57 162.48 -24.64 Q 162.52 -24.71 162.57 -24.78 L 162.57 -24.78 Q 162.75 -25.05 162.98 -25.38 Q 163.2 -25.72 163.22 -25.76 L 163.22 -25.76 Q 163.47 -26.14 163.71 -26.33 Q 163.95 -26.52 164.29 -26.83 L 164.29 -26.83 Q 165 -27.38 165.55 -27.84 Q 166.09 -28.3 166.85 -28.76 L 166.85 -28.76 L 167.37 -29 Q 167.56 -29.06 167.79 -29.17 Q 168.02 -29.29 168.28 -29.42 Q 168.53 -29.54 168.76 -29.65 Q 168.99 -29.75 169.18 -29.81 L 169.18 -29.81 L 171.32 -30.11 Q 171.41 -30.11 171.59 -30.17 Q 171.78 -30.23 171.87 -30.34 L 171.87 -30.34 Q 172.77 -30.36 173.32 -30.38 Q 173.86 -30.4 174.34 -30.4 L 174.34 -30.4 Q 175 -30.4 175.63 -30.38 Q 176.26 -30.36 176.89 -30.34 L 176.89 -30.34 Q 177.28 -30.23 177.54 -30.18 Q 177.79 -30.13 177.94 -30.1 Q 178.08 -30.07 178.14 -30.07 Q 178.21 -30.07 178.27 -30.07 L 178.27 -30.07 Q 178.52 -30.09 178.68 -30.1 Q 178.84 -30.11 178.97 -30.11 Q 179.11 -30.11 179.28 -30.11 Q 179.45 -30.11 179.72 -30.11 L 179.72 -30.11 Q 179.95 -29.98 180.22 -29.75 Q 180.5 -29.52 180.73 -29.52 L 180.73 -29.52 Q 180.81 -29.52 180.9 -29.58 Q 180.98 -29.65 181.02 -29.65 L 181.02 -29.65 L 182.26 -29.65 Q 182.53 -29.69 182.77 -29.82 Q 183.02 -29.96 183.26 -30.12 Q 183.5 -30.28 183.73 -30.39 Q 183.96 -30.51 184.25 -30.51 L 184.25 -30.51 Q 184.61 -30.51 184.87 -30.29 Q 185.14 -30.07 185.14 -29.65 L 185.14 -29.65 L 185.14 -26.16 Q 185.16 -26.06 185.2 -25.83 Q 185.24 -25.59 185.24 -25.49 L 185.24 -25.49 Q 185.43 -24.48 185.68 -23.42 Q 185.93 -22.36 185.93 -21.35 L 185.93 -21.35 Q 185.91 -21.23 185.83 -21.08 Q 185.75 -20.93 185.63 -20.81 Q 185.51 -20.68 185.41 -20.59 Q 185.3 -20.49 185.24 -20.49 L 185.24 -20.49 Q 185.24 -20.45 185.09 -20.45 L 185.09 -20.45 Q 184.67 -20.45 184.37 -20.64 Q 184.07 -20.83 183.86 -21.12 Q 183.65 -21.42 183.54 -21.75 Q 183.44 -22.09 183.39 -22.38 L 183.39 -22.38 L 183.39 -23.07 Q 183.35 -23.37 183.28 -23.55 Q 183.21 -23.73 183.1 -23.86 Q 183 -24 182.86 -24.15 Q 182.72 -24.29 182.55 -24.52 L 182.55 -24.52 Q 182.32 -24.75 182.28 -25.04 Q 182.24 -25.32 182.05 -25.62 L 182.05 -25.62 Q 182.01 -25.7 181.86 -25.78 Q 181.71 -25.87 181.67 -25.87 L 181.67 -25.87 L 180.33 -26.83 Q 180.33 -26.85 180.23 -26.95 Q 180.14 -27.04 180.03 -27.16 Q 179.93 -27.27 179.84 -27.38 Q 179.74 -27.48 179.72 -27.53 L 179.72 -27.53 Q 179.49 -27.65 179.47 -27.65 L 179.47 -27.65 Q 179.43 -27.61 179.17 -27.61 L 179.17 -27.61 Q 179.03 -27.61 179.03 -27.65 L 179.03 -27.65 Q 178.59 -27.74 178.18 -27.92 Q 177.77 -28.11 177.43 -28.3 L 177.43 -28.3 L 174.89 -28.41 Q 174.74 -28.58 174.6 -28.62 Q 174.45 -28.66 174.24 -28.66 L 174.24 -28.66 Q 173.53 -28.66 173.02 -28.53 Q 172.52 -28.41 172.1 -28.18 L 172.1 -28.18 Q 172.08 -28.13 172.06 -28.11 L 172.06 -28.11 Q 172.01 -28.07 171.97 -28.07 L 171.97 -28.07 Q 171.68 -27.84 171.33 -27.71 Q 170.99 -27.59 170.63 -27.47 Q 170.27 -27.36 169.92 -27.22 Q 169.58 -27.08 169.28 -26.83 L 169.28 -26.83 L 168.49 -26.16 Q 168.47 -26.12 168.28 -25.98 Q 168.09 -25.85 168.07 -25.76 L 168.07 -25.76 Q 167.96 -25.53 167.71 -25.33 Q 167.46 -25.13 167.37 -25.09 L 167.37 -25.09 Q 167.21 -24.86 167.13 -24.6 Q 167.06 -24.33 166.98 -24.29 L 166.98 -24.29 L 166.49 -23.6 L 165.9 -22.26 L 165.63 -21.04 Q 165.61 -21 165.54 -20.89 Q 165.46 -20.79 165.37 -20.67 Q 165.27 -20.56 165.18 -20.47 Q 165.09 -20.39 165.04 -20.39 L 165.04 -20.39 Q 165.04 -20.37 165.02 -20.22 Q 165 -20.07 164.99 -19.87 Q 164.98 -19.67 164.96 -19.47 Q 164.94 -19.27 164.94 -19.17 L 164.94 -19.17 L 164.94 -18.6 L 165.04 -16.46 L 165.3 -15.43 L 165.04 -14.28 Q 165.04 -13.27 165.32 -12.26 Q 165.59 -11.25 165.9 -10.31 L 165.9 -10.31 Q 165.95 -10.29 166.28 -9.81 L 166.28 -9.81 L 166.49 -9.22 Q 166.56 -9.05 166.68 -8.89 Q 166.81 -8.73 166.96 -8.59 Q 167.12 -8.44 167.27 -8.31 Q 167.42 -8.19 167.52 -8.06 L 167.52 -8.06 Q 167.63 -7.68 167.67 -7.54 Q 167.71 -7.39 167.75 -7.34 Q 167.79 -7.29 167.86 -7.25 Q 167.92 -7.22 168.07 -7.08 L 168.07 -7.08 Q 168.21 -7.01 168.31 -6.88 Q 168.4 -6.74 168.49 -6.57 Q 168.57 -6.4 168.65 -6.24 Q 168.74 -6.07 168.89 -5.96 L 168.89 -5.96 Q 169.28 -5.9 169.57 -5.89 Q 169.85 -5.88 170.08 -5.63 L 170.08 -5.63 Q 170.59 -5.21 171.03 -4.9 Q 171.47 -4.6 171.92 -4.38 Q 172.37 -4.16 172.87 -4 Q 173.38 -3.84 174.01 -3.74 L 174.01 -3.74 L 175.1 -3.42 Q 175.65 -3.42 175.99 -3.58 Q 176.34 -3.74 176.68 -3.74 L 176.68 -3.74 Q 176.99 -3.74 177.26 -3.52 Q 177.54 -3.3 177.87 -3.3 L 177.87 -3.3 Q 178.14 -3.3 178.32 -3.47 Q 178.5 -3.65 178.77 -3.74 L 178.77 -3.74 Q 178.82 -3.74 179.04 -3.78 Q 179.26 -3.82 179.32 -3.84 L 179.32 -3.84 Q 179.4 -3.84 179.59 -3.95 Q 179.78 -4.05 179.87 -4.14 L 179.87 -4.14 Q 180.58 -4.24 180.78 -4.31 Q 180.98 -4.39 181.02 -4.39 L 181.02 -4.39 Q 181.04 -4.41 181.13 -4.48 Q 181.21 -4.56 181.3 -4.65 Q 181.4 -4.75 181.48 -4.84 Q 181.57 -4.93 181.61 -4.98 L 181.61 -4.98 Q 181.69 -4.98 181.88 -5.08 Q 182.07 -5.19 182.29 -5.33 Q 182.51 -5.48 182.73 -5.63 Q 182.95 -5.77 183.1 -5.86 L 183.1 -5.86 Q 183.21 -5.92 183.25 -6.02 Q 183.29 -6.11 183.39 -6.21 L 183.39 -6.21 Q 183.71 -6.66 184.02 -6.87 Q 184.34 -7.08 184.7 -7.52 L 184.7 -7.52 Q 184.78 -7.6 184.94 -7.78 Q 185.09 -7.96 185.14 -8.06 L 185.14 -8.06 Q 185.16 -8.1 185.23 -8.32 Q 185.3 -8.55 185.39 -8.57 L 185.39 -8.57 Q 185.66 -8.8 185.91 -8.88 Q 186.17 -8.97 186.44 -8.97 L 186.44 -8.97 Q 186.59 -8.97 186.7 -8.84 Q 186.82 -8.71 186.89 -8.55 Q 186.96 -8.38 187.01 -8.18 Q 187.05 -7.98 187.05 -7.85 L 187.05 -7.85 Q 187.05 -7.43 186.86 -7.11 Q 186.67 -6.78 186.44 -6.49 Q 186.21 -6.19 185.99 -5.89 Q 185.77 -5.58 185.68 -5.19 L 185.68 -5.19 Q 185.6 -5.12 185.41 -4.97 Q 185.22 -4.81 185.03 -4.62 Q 184.84 -4.43 184.67 -4.25 Q 184.51 -4.07 184.46 -3.99 L 184.46 -3.99 Q 184 -3.38 183.62 -3.14 Q 183.25 -2.9 182.91 -2.65 L 182.91 -2.65 Q 182.76 -2.46 182.69 -2.26 Q 182.62 -2.06 182.37 -1.95 L 182.37 -1.95 Q 182.07 -1.78 181.7 -1.65 Q 181.34 -1.51 180.92 -1.41 L 180.92 -1.41 Q 180.24 -0.99 179.72 -0.84 Q 179.19 -0.69 178.63 -0.5 L 178.63 -0.5 L 177.79 -0.04 Q 176.68 0.02 176.26 0.14 Q 175.84 0.25 175.75 0.25 L 175.75 0.25 Q 175.08 0.23 174.84 0.14 Q 174.6 0.04 174.51 0.04 L 174.51 0.04 L 173.21 0.46 Q 172.98 0.44 172.72 0.42 Q 172.46 0.4 172.2 0.37 Q 171.95 0.34 171.74 0.28 Q 171.53 0.23 171.43 0.15 L 171.43 0.15 Q 170.86 0 170.25 -0.06 Q 169.64 -0.13 169.07 -0.4 L 169.07 -0.4 L 167.52 -1.01 Q 167.48 -1.05 167.27 -1.1 Q 167.06 -1.15 166.98 -1.15 L 166.98 -1.15 Q 166.37 -1.95 166.28 -1.95 L 166.28 -1.95 L 165.78 -1.95 Q 165.61 -2.06 165.39 -2.36 Q 165.17 -2.67 164.94 -3.04 L 164.94 -3.04 Q 164.94 -3.3 164.65 -3.36 Q 164.37 -3.42 164.16 -3.42 L 164.16 -3.42 Q 164.04 -3.49 163.99 -3.6 Q 163.95 -3.72 163.92 -3.85 Q 163.89 -3.99 163.85 -4.14 Q 163.8 -4.28 163.7 -4.39 L 163.7 -4.39 Q 163.66 -4.49 163.49 -4.69 Q 163.32 -4.89 163.22 -4.98 L 163.22 -4.98 Q 163.07 -5.06 162.99 -5.1 Q 162.9 -5.14 162.84 -5.18 Q 162.78 -5.21 162.71 -5.28 Q 162.65 -5.35 162.54 -5.52 L 162.54 -5.52 L 162.02 -6.32 L 161.56 -6.82 Q 161.56 -7.56 161.45 -7.85 Q 161.35 -8.15 161.31 -8.17 L 161.31 -8.17 Q 161.31 -8.25 161.25 -8.53 Q 161.2 -8.82 161.16 -8.86 L 161.16 -8.86 Q 160.74 -9.05 160.63 -9.13 L 160.63 -9.13 Q 160.55 -9.2 160.51 -9.22 L 160.51 -9.22 Z M 204.25 -0.9 L 204.25 -0.9 Q 204.25 -1.49 204.6 -1.8 Q 204.96 -2.1 205.51 -2.1 L 205.51 -2.1 L 206.89 -1.93 Q 207.42 -1.93 207.95 -2.14 Q 208.49 -2.35 208.96 -2.7 Q 209.43 -3.04 209.77 -3.51 Q 210.1 -3.97 210.23 -4.47 L 210.23 -4.47 L 210.23 -5.58 Q 210.34 -6.51 210.52 -7.34 Q 210.71 -8.17 210.71 -9.05 L 210.71 -9.05 L 210.42 -9.95 L 210.42 -14.78 Q 210.38 -15.03 210.37 -15.27 Q 210.36 -15.52 210.36 -15.83 L 210.36 -15.83 L 210.36 -19.65 Q 210.44 -19.88 210.46 -20.21 Q 210.48 -20.53 210.48 -20.91 L 210.48 -20.91 Q 210.48 -21.31 210.45 -21.59 Q 210.42 -21.88 210.42 -22.13 L 210.42 -22.13 L 210.57 -22.34 L 210.57 -24.78 Q 210.4 -25.13 210.34 -25.42 Q 210.27 -25.7 210.17 -25.9 Q 210.06 -26.1 209.86 -26.2 Q 209.66 -26.31 209.22 -26.31 L 209.22 -26.31 L 208.07 -26.01 Q 207.52 -26.01 206.99 -26.19 Q 206.45 -26.37 205.84 -26.58 L 205.84 -26.58 Q 204.81 -26.52 204.12 -26.44 Q 203.43 -26.37 202.86 -26.22 Q 202.29 -26.08 201.75 -25.85 Q 201.2 -25.62 200.47 -25.22 L 200.47 -25.22 Q 200.19 -24.86 199.96 -24.36 Q 199.73 -23.85 199.47 -23.38 Q 199.21 -22.91 198.87 -22.57 Q 198.54 -22.23 198.07 -22.23 L 198.07 -22.23 Q 197.95 -22.23 197.78 -22.23 Q 197.61 -22.23 197.48 -22.27 Q 197.34 -22.3 197.23 -22.36 Q 197.13 -22.42 197.13 -22.53 L 197.13 -22.53 Q 197.13 -22.89 197.18 -23.15 Q 197.23 -23.41 197.32 -23.64 Q 197.4 -23.87 197.48 -24.11 Q 197.55 -24.36 197.59 -24.67 L 197.59 -24.67 L 197.59 -26.01 L 197.93 -26.81 Q 197.99 -26.96 198.04 -27.26 Q 198.09 -27.57 198.15 -27.9 Q 198.2 -28.24 198.26 -28.58 Q 198.33 -28.91 198.39 -29.12 L 198.39 -29.12 Q 198.45 -29.44 198.54 -29.77 Q 198.62 -30.11 198.77 -30.39 Q 198.91 -30.68 199.13 -30.86 Q 199.35 -31.05 199.71 -31.05 L 199.71 -31.05 Q 200.11 -31.05 200.57 -30.74 Q 201.03 -30.42 201.51 -30.01 Q 201.98 -29.6 202.43 -29.23 Q 202.88 -28.85 203.26 -28.72 L 203.26 -28.72 Q 203.45 -28.68 203.92 -28.61 Q 204.39 -28.53 204.93 -28.45 Q 205.46 -28.37 205.93 -28.31 Q 206.39 -28.26 206.58 -28.26 L 206.58 -28.26 Q 206.89 -28.26 207.14 -28.31 Q 207.4 -28.37 207.63 -28.44 Q 207.86 -28.51 208.12 -28.57 Q 208.38 -28.62 208.74 -28.62 L 208.74 -28.62 L 209.26 -28.62 Q 209.73 -28.62 209.81 -28.6 L 209.81 -28.6 Q 209.89 -28.55 210.14 -28.43 Q 210.38 -28.3 210.42 -28.26 L 210.42 -28.26 L 210.52 -28.26 Q 210.88 -28.26 211.21 -28.33 Q 211.53 -28.41 211.87 -28.49 Q 212.2 -28.58 212.54 -28.65 Q 212.88 -28.72 213.25 -28.72 L 213.25 -28.72 Q 213.69 -28.72 214.07 -28.6 Q 214.45 -28.47 214.79 -28.47 L 214.79 -28.47 L 215.44 -28.47 Q 216.3 -28.47 217.13 -28.52 Q 217.96 -28.58 218.83 -28.64 Q 219.7 -28.7 220.61 -28.76 Q 221.53 -28.83 222.56 -28.85 L 222.56 -28.85 Q 222.85 -28.85 223.06 -28.78 Q 223.27 -28.7 223.5 -28.7 L 223.5 -28.7 Q 223.77 -28.7 223.95 -28.84 Q 224.13 -28.97 224.28 -29.15 Q 224.42 -29.33 224.56 -29.51 Q 224.7 -29.69 224.89 -29.79 L 224.89 -29.79 Q 225.16 -29.9 225.4 -30.06 Q 225.64 -30.21 225.86 -30.37 Q 226.08 -30.53 226.3 -30.63 Q 226.52 -30.74 226.8 -30.74 L 226.8 -30.74 Q 227.03 -30.74 227.21 -30.48 Q 227.38 -30.21 227.53 -30.05 L 227.53 -30.05 Q 227.53 -30 227.55 -29.98 L 227.55 -29.98 Q 227.55 -29.96 227.57 -29.96 L 227.57 -29.96 Q 227.53 -29.84 227.53 -29.64 Q 227.53 -29.44 227.53 -29.21 L 227.53 -29.21 L 227.53 -27.13 Q 227.53 -26.85 227.53 -26.69 Q 227.53 -26.52 227.57 -26.41 L 227.57 -26.41 L 227.74 -24.15 Q 227.74 -24.08 227.73 -23.91 Q 227.72 -23.75 227.71 -23.57 Q 227.7 -23.39 227.69 -23.23 Q 227.68 -23.07 227.68 -23.03 L 227.68 -23.03 Q 227.53 -22.78 227.13 -22.78 L 227.13 -22.78 Q 226.75 -22.78 226.46 -23.06 Q 226.17 -23.35 225.9 -23.73 Q 225.64 -24.1 225.4 -24.47 Q 225.16 -24.84 224.89 -25.03 L 224.89 -25.03 Q 224.47 -25.36 224.08 -25.59 Q 223.69 -25.83 223.35 -26.27 L 223.35 -26.27 L 222.6 -26.18 L 217.64 -26.58 L 216.93 -26.41 L 215.88 -26.58 L 215.5 -26.58 L 215.19 -26.27 Q 215.19 -26.29 215.16 -26.06 Q 215.14 -25.83 215.11 -25.49 Q 215.08 -25.15 215.06 -24.82 Q 215.04 -24.48 215.04 -24.27 L 215.04 -24.27 L 215.19 -22.09 L 215.19 -17.91 L 214.89 -16.33 L 215.19 -13.77 Q 215.19 -13.54 215.16 -13.42 Q 215.14 -13.29 215.04 -13.04 L 215.04 -13.04 Q 215.04 -12.79 215.05 -12.22 Q 215.06 -11.65 215.06 -10.94 L 215.06 -10.94 Q 215.06 -10.27 215.05 -9.74 Q 215.04 -9.22 215.04 -8.97 L 215.04 -8.97 L 214.89 -7.92 Q 214.89 -7.66 214.91 -7.21 Q 214.93 -6.76 214.98 -6.21 Q 215.02 -5.67 215.1 -5.09 Q 215.19 -4.51 215.33 -4.03 Q 215.48 -3.55 215.68 -3.2 Q 215.88 -2.86 216.15 -2.79 L 216.15 -2.79 L 218.88 -2.1 L 219.36 -2.1 L 219.93 -2.23 Q 220.18 -2.23 220.36 -2.09 Q 220.54 -1.95 220.66 -1.74 Q 220.77 -1.53 220.82 -1.31 Q 220.88 -1.09 220.88 -0.9 L 220.88 -0.9 Q 220.88 -0.55 220.73 -0.35 Q 220.58 -0.15 220.35 -0.04 Q 220.12 0.06 219.84 0.08 Q 219.55 0.1 219.28 0.1 L 219.28 0.1 Q 219.05 0.1 218.86 0.04 Q 218.67 -0.02 218.44 -0.19 L 218.44 -0.19 Q 218.25 -0.29 218 -0.38 Q 217.75 -0.46 217.5 -0.46 L 217.5 -0.46 L 216.45 -0.19 Q 216.03 -0.19 215.44 -0.34 Q 214.85 -0.48 214.24 -0.59 L 214.24 -0.59 Q 214.22 -0.59 214.05 -0.56 Q 213.88 -0.52 213.67 -0.47 Q 213.46 -0.42 213.29 -0.39 Q 213.11 -0.36 213.06 -0.36 L 213.06 -0.36 L 211.18 -0.36 Q 210.69 -0.34 210.31 -0.17 Q 209.94 0 209.47 0 L 209.47 0 Q 209.33 -0.04 209.05 -0.12 Q 208.78 -0.19 208.74 -0.19 L 208.74 -0.19 Q 208.45 -0.19 208.2 -0.12 Q 207.96 -0.04 207.67 0.04 L 207.67 0.04 Q 207.27 0.13 206.9 0.21 Q 206.54 0.29 206.09 0.29 L 206.09 0.29 L 205.78 0.29 Q 205.49 0.29 205.23 0.25 Q 204.98 0.21 204.6 0.1 L 204.6 0.1 Q 204.6 0.06 204.5 -0.3 Q 204.39 -0.67 204.25 -0.9 Z M 261.11 -0.69 L 261 -0.76 Q 259.72 -1.81 258.76 -3.13 Q 257.79 -4.45 257.12 -5.92 L 257.12 -5.92 L 256.82 -6.68 Q 256.72 -6.89 256.53 -7.11 Q 256.34 -7.33 256.14 -7.55 Q 255.94 -7.77 255.75 -7.97 Q 255.56 -8.17 255.48 -8.36 L 255.48 -8.36 L 255.02 -9.11 L 253.44 -10.83 Q 253.4 -11.44 252.87 -12.02 Q 252.33 -12.6 251.61 -13.06 Q 250.88 -13.52 250.12 -13.79 Q 249.35 -14.07 248.85 -14.07 L 248.85 -14.07 Q 248.64 -14.07 248.32 -14 Q 248.01 -13.94 247.7 -13.8 Q 247.4 -13.67 247.18 -13.46 Q 246.96 -13.25 246.96 -12.98 L 246.96 -12.98 L 247.1 -12.18 Q 247.1 -11.88 247.03 -11.76 Q 246.96 -11.63 246.96 -11.44 L 246.96 -11.44 Q 246.96 -11.11 246.98 -10.91 Q 247 -10.71 247.1 -10.35 L 247.1 -10.35 L 246.91 -7.01 L 246.96 -6.57 Q 246.98 -6.21 246.98 -5.88 Q 246.98 -5.54 246.98 -5.19 L 246.98 -5.19 Q 246.98 -4.83 246.98 -4.52 Q 246.98 -4.22 246.96 -3.88 L 246.96 -3.88 Q 246.96 -3.7 247.12 -3.44 Q 247.29 -3.19 247.52 -3.09 L 247.52 -3.09 L 248.51 -2.44 Q 248.8 -2.23 249.27 -2.14 Q 249.73 -2.06 250.24 -2.02 Q 250.76 -1.97 251.27 -1.94 Q 251.79 -1.91 252.19 -1.8 Q 252.6 -1.68 252.87 -1.46 Q 253.13 -1.24 253.13 -0.84 L 253.13 -0.84 Q 253.13 -0.52 252.89 -0.26 Q 252.65 0 252.32 0.19 Q 252 0.38 251.64 0.48 Q 251.28 0.59 251.03 0.59 L 251.03 0.59 Q 250.69 0.59 250.41 0.51 Q 250.13 0.44 249.84 0.35 Q 249.56 0.25 249.26 0.16 Q 248.95 0.06 248.61 0 L 248.61 0 Q 247.86 -0.15 247.11 -0.26 Q 246.37 -0.38 245.42 -0.65 L 245.42 -0.65 Q 245.19 -0.65 244.93 -0.58 Q 244.67 -0.5 244.33 -0.5 L 244.33 -0.5 L 242.84 -0.65 Q 242.61 -0.65 242.35 -0.43 Q 242.09 -0.21 241.79 -0.21 L 241.79 -0.21 L 238.37 -0.34 Q 238.16 -0.55 238.16 -0.76 L 238.16 -0.76 Q 238.16 -1.26 238.65 -1.55 Q 239.15 -1.85 239.79 -2.04 Q 240.43 -2.23 241.02 -2.35 Q 241.62 -2.48 241.83 -2.65 L 241.83 -2.65 Q 242.06 -2.98 242.06 -3.41 Q 242.06 -3.84 242.15 -4.14 L 242.15 -4.14 Q 242.25 -4.18 242.37 -4.3 Q 242.48 -4.43 242.53 -4.43 L 242.53 -4.43 Q 242.72 -4.89 242.77 -5.52 Q 242.82 -6.15 242.82 -6.76 L 242.82 -6.76 L 242.82 -7.66 Q 242.82 -8.1 242.73 -8.43 Q 242.63 -8.76 242.63 -9.11 L 242.63 -9.11 L 243.07 -12.89 L 242.74 -14.93 L 242.63 -15.41 L 242.63 -15.52 Q 242.63 -15.58 242.64 -15.74 Q 242.65 -15.89 242.66 -16.07 Q 242.67 -16.25 242.69 -16.41 Q 242.72 -16.57 242.74 -16.63 L 242.74 -16.63 Q 242.99 -16.73 243.03 -16.8 Q 243.07 -16.86 243.07 -17.01 L 243.07 -17.01 L 242.82 -18.31 L 243.07 -19.44 Q 243.07 -19.46 243.12 -19.67 Q 243.18 -19.88 243.18 -19.97 L 243.18 -19.97 L 243.07 -20.51 L 243.07 -21.14 L 243.18 -22.49 L 242.82 -25.68 L 242.82 -26.12 Q 242.36 -26.69 241.92 -27.08 Q 241.48 -27.48 240.97 -27.77 Q 240.47 -28.05 239.89 -28.26 Q 239.31 -28.47 238.56 -28.66 L 238.56 -28.66 Q 238.26 -28.72 238.26 -29.02 L 238.26 -29.02 Q 238.26 -29.31 238.65 -29.52 Q 239.04 -29.73 239.54 -29.86 Q 240.05 -29.98 240.53 -30.05 Q 241.01 -30.11 241.2 -30.11 L 241.2 -30.11 L 242.44 -30 L 243.76 -30.11 L 245.61 -29.71 Q 246.18 -29.71 246.73 -29.86 Q 247.27 -30 247.92 -30 L 247.92 -30 L 249.66 -29.81 L 251.45 -30 Q 252.5 -30 253.49 -29.8 Q 254.47 -29.6 255.48 -29.31 L 255.48 -29.31 Q 255.96 -29.14 256.54 -29.05 Q 257.12 -28.95 257.56 -28.66 L 257.56 -28.66 L 258.02 -28.32 Q 258.86 -27.82 259.54 -27.37 Q 260.23 -26.92 260.7 -26.36 Q 261.17 -25.8 261.45 -25.06 Q 261.74 -24.31 261.8 -23.2 L 261.8 -23.2 Q 261.84 -22.65 261.95 -22.2 Q 262.05 -21.75 262.05 -21.21 L 262.05 -21.21 Q 262.05 -20.98 262 -20.85 Q 261.95 -20.72 261.86 -20.62 Q 261.78 -20.51 261.68 -20.41 Q 261.59 -20.3 261.51 -20.11 L 261.51 -20.11 Q 261.4 -19.9 261.36 -19.62 Q 261.32 -19.34 261.28 -19.05 Q 261.23 -18.77 261.17 -18.51 Q 261.11 -18.25 261 -18.1 L 261 -18.1 Q 260.65 -17.59 260.15 -17.28 Q 259.66 -16.96 259.22 -16.52 L 259.22 -16.52 Q 259.03 -16.21 258.63 -16.01 Q 258.23 -15.81 257.83 -15.62 Q 257.43 -15.43 257.13 -15.16 Q 256.82 -14.89 256.82 -14.42 L 256.82 -14.42 Q 256.82 -14.19 256.91 -14.09 Q 256.99 -13.98 257.1 -13.9 Q 257.2 -13.82 257.33 -13.73 Q 257.45 -13.65 257.56 -13.48 L 257.56 -13.48 Q 257.58 -13.42 257.75 -13.16 Q 257.92 -12.91 258.12 -12.63 Q 258.32 -12.35 258.48 -12.1 Q 258.65 -11.86 258.69 -11.84 L 258.69 -11.84 Q 259.47 -10.83 260.09 -9.78 Q 260.71 -8.73 261.51 -7.81 L 261.51 -7.81 Q 261.99 -7.26 262.46 -6.72 Q 262.93 -6.17 263.54 -5.82 L 263.54 -5.82 Q 263.71 -5.73 263.84 -5.5 Q 263.96 -5.27 264.08 -4.99 Q 264.19 -4.7 264.31 -4.43 Q 264.42 -4.16 264.57 -3.99 L 264.57 -3.99 Q 265.37 -3.42 266.05 -2.98 Q 266.73 -2.54 267.47 -1.99 L 267.47 -1.99 Q 267.81 -1.76 268.26 -1.6 Q 268.71 -1.43 269.12 -1.22 Q 269.53 -1.01 269.81 -0.7 Q 270.09 -0.4 270.09 0.06 L 270.09 0.06 Q 270.09 0.5 269.73 0.63 Q 269.36 0.76 268.92 0.76 L 268.92 0.76 L 265.83 0.76 Q 265.18 0.46 264.55 0.45 Q 263.92 0.44 263.12 0.36 L 263.12 0.36 Q 262.96 0.34 262.69 0.22 Q 262.43 0.1 262.15 -0.05 Q 261.86 -0.21 261.59 -0.39 Q 261.32 -0.57 261.11 -0.69 L 261.11 -0.69 Z M 247.1 -18.9 L 246.66 -17.01 Q 246.66 -16.52 246.84 -16.17 Q 247.02 -15.81 247.33 -15.57 Q 247.65 -15.33 248.06 -15.2 Q 248.47 -15.08 248.91 -15.08 L 248.91 -15.08 L 249.66 -15.08 Q 249.73 -15.41 250.28 -15.65 Q 250.84 -15.89 251.52 -16.07 Q 252.21 -16.25 252.87 -16.38 Q 253.53 -16.5 253.82 -16.63 L 253.82 -16.63 Q 254.24 -16.82 254.66 -17.21 Q 255.08 -17.59 255.42 -17.97 L 255.42 -17.97 L 256.11 -19.3 Q 256.43 -19.84 256.62 -20.43 Q 256.82 -21.02 256.82 -21.69 L 256.82 -21.69 Q 256.82 -21.86 256.75 -22.01 Q 256.68 -22.17 256.59 -22.33 Q 256.51 -22.49 256.44 -22.67 Q 256.36 -22.84 256.36 -23.07 L 256.36 -23.07 Q 256.49 -23.64 256.51 -23.77 Q 256.53 -23.89 256.53 -23.98 L 256.53 -23.98 L 256.53 -24.19 Q 256.53 -24.27 256.33 -24.44 Q 256.13 -24.61 256.11 -24.69 L 256.11 -24.69 Q 255.61 -25.62 254.96 -26.23 Q 254.3 -26.85 253.52 -27.22 Q 252.73 -27.59 251.82 -27.75 Q 250.9 -27.9 249.85 -27.9 L 249.85 -27.9 Q 249.77 -27.9 249.5 -27.86 Q 249.22 -27.82 248.91 -27.77 Q 248.59 -27.71 248.33 -27.66 Q 248.07 -27.61 248.01 -27.57 L 248.01 -27.57 Q 247.96 -27.53 247.89 -27.41 Q 247.82 -27.29 247.74 -27.17 Q 247.67 -27.04 247.61 -26.93 Q 247.54 -26.81 247.52 -26.77 L 247.52 -26.77 L 247.52 -26.18 Q 247.52 -25.05 247.31 -23.97 Q 247.1 -22.89 246.81 -21.75 L 246.81 -21.75 L 246.52 -21.33 L 246.96 -20.79 Q 246.98 -20.68 247.02 -20.36 Q 247.06 -20.03 247.1 -19.84 L 247.1 -19.84 L 247.1 -19.55 Q 247.06 -19.55 247.01 -19.46 Q 246.96 -19.38 246.96 -19.3 L 246.96 -19.3 Q 246.96 -19.25 247.01 -19.09 Q 247.06 -18.92 247.1 -18.9 L 247.1 -18.9 Z M 278.45 -10.54 L 278.45 -10.54 Q 278.45 -10.81 278.6 -11.08 Q 278.75 -11.34 278.75 -11.65 L 278.75 -11.65 L 278.2 -13.98 Q 278.2 -14.59 278.28 -15.35 Q 278.35 -16.1 278.45 -16.67 L 278.45 -16.67 Q 278.62 -17.2 278.73 -17.79 Q 278.83 -18.39 278.89 -18.99 Q 278.96 -19.59 278.98 -20.12 Q 279 -20.66 279 -21.04 L 279 -21.04 Q 279.23 -21.33 279.46 -21.54 Q 279.69 -21.75 279.88 -21.95 Q 280.07 -22.15 280.2 -22.41 Q 280.32 -22.68 280.39 -23.07 L 280.39 -23.07 L 281.54 -24.27 L 282.09 -24.52 Q 282.21 -24.59 282.38 -24.82 Q 282.55 -25.05 282.73 -25.35 Q 282.91 -25.66 283.08 -25.94 Q 283.26 -26.22 283.43 -26.37 L 283.43 -26.37 Q 284.63 -27.23 285.79 -27.97 Q 286.96 -28.7 288.34 -29.39 L 288.34 -29.39 Q 288.45 -29.42 288.55 -29.46 L 288.55 -29.46 Q 288.66 -29.48 288.75 -29.5 Q 288.85 -29.52 288.91 -29.52 L 288.91 -29.52 Q 289.25 -29.56 289.46 -29.68 Q 289.67 -29.79 289.85 -29.91 Q 290.04 -30.02 290.26 -30.12 Q 290.48 -30.21 290.8 -30.21 L 290.8 -30.21 L 291.83 -30.05 L 292.14 -30.21 L 292.92 -30.44 Q 293.87 -30.57 294.76 -30.59 Q 295.65 -30.61 296.57 -30.61 L 296.57 -30.61 Q 296.87 -30.61 297.55 -30.49 Q 298.23 -30.36 298.98 -30.18 Q 299.72 -30 300.35 -29.81 Q 300.98 -29.63 301.19 -29.52 L 301.19 -29.52 Q 301.8 -29.1 302.29 -28.51 Q 302.79 -27.92 303.33 -27.5 L 303.33 -27.5 Q 303.67 -27.25 304 -27.08 Q 304.32 -26.92 304.64 -26.76 Q 304.95 -26.6 305.27 -26.42 Q 305.58 -26.25 305.87 -25.97 L 305.87 -25.97 Q 305.98 -25.93 306.13 -25.8 Q 306.27 -25.68 306.42 -25.52 Q 306.57 -25.36 306.68 -25.23 Q 306.8 -25.09 306.86 -25.03 L 306.86 -25.03 L 307.01 -24.38 Q 307.05 -24.12 307.23 -23.9 Q 307.41 -23.68 307.63 -23.46 Q 307.85 -23.24 308.05 -23.03 Q 308.25 -22.82 308.31 -22.59 L 308.31 -22.59 Q 308.48 -22.34 308.69 -21.95 Q 308.9 -21.56 309.11 -21.12 Q 309.32 -20.68 309.47 -20.25 Q 309.61 -19.82 309.65 -19.51 L 309.65 -19.51 L 309.65 -18.27 Q 309.74 -17.91 309.81 -17.7 Q 309.89 -17.49 310.03 -17.26 L 310.03 -17.26 Q 310.12 -17.03 310.18 -16.81 Q 310.24 -16.59 310.24 -16.23 L 310.24 -16.23 Q 310.24 -16.19 310.22 -16.08 Q 310.2 -15.98 310.19 -15.85 Q 310.18 -15.73 310.16 -15.61 Q 310.14 -15.5 310.14 -15.43 L 310.14 -15.43 L 310.35 -14.89 L 310.24 -13.98 Q 310.28 -13.88 310.28 -13.73 Q 310.28 -13.58 310.28 -13.4 L 310.28 -13.4 Q 310.28 -12.72 310.2 -12.21 Q 310.12 -11.69 310.03 -11.55 L 310.03 -11.55 Q 309.8 -10.88 309.51 -10.31 Q 309.21 -9.74 308.9 -9.19 Q 308.58 -8.63 308.28 -8.04 Q 307.97 -7.45 307.7 -6.76 L 307.7 -6.76 Q 307.58 -6.63 307.45 -6.57 Q 307.32 -6.51 307.2 -6.47 Q 307.07 -6.42 306.95 -6.34 Q 306.82 -6.26 306.71 -6.11 L 306.71 -6.11 Q 306.65 -6 306.58 -5.84 Q 306.5 -5.67 306.41 -5.47 Q 306.32 -5.27 306.21 -5.08 Q 306.11 -4.89 305.98 -4.77 L 305.98 -4.77 L 305.56 -4.51 Q 305.39 -4.51 305.23 -4.36 Q 305.08 -4.2 305.08 -4.07 L 305.08 -4.07 Q 304.93 -3.88 304.66 -3.56 Q 304.38 -3.23 304.07 -2.89 Q 303.75 -2.54 303.46 -2.25 Q 303.17 -1.95 302.98 -1.81 L 302.98 -1.81 Q 302.83 -1.72 302.73 -1.66 L 302.73 -1.66 Q 302.62 -1.62 302.53 -1.57 Q 302.43 -1.53 302.39 -1.53 L 302.39 -1.53 L 300.06 -0.73 Q 299.91 -0.57 299.85 -0.47 Q 299.79 -0.38 299.72 -0.34 Q 299.66 -0.29 299.58 -0.26 Q 299.49 -0.23 299.3 -0.19 L 299.3 -0.19 L 297.92 -0.06 L 296.43 0.59 Q 296.24 0.63 296.05 0.65 L 296.05 0.65 Q 295.88 0.67 295.7 0.68 Q 295.52 0.69 295.36 0.69 L 295.36 0.69 Q 295.12 0.69 294.8 0.64 Q 294.47 0.59 294.12 0.52 Q 293.76 0.46 293.41 0.39 Q 293.07 0.31 292.79 0.25 L 292.79 0.25 Q 292.37 0.15 291.91 0.13 Q 291.45 0.1 290.99 0.1 L 290.99 0.1 Q 290.19 0.1 289.46 0.05 Q 288.72 0 288.01 -0.29 L 288.01 -0.29 L 287.69 -0.73 Q 287.46 -0.8 287.15 -0.83 Q 286.83 -0.86 286.51 -0.92 Q 286.18 -0.99 285.9 -1.09 Q 285.61 -1.2 285.47 -1.41 L 285.47 -1.41 Q 285.15 -1.78 284.96 -2.05 Q 284.77 -2.31 284.58 -2.51 Q 284.4 -2.71 284.11 -2.89 Q 283.83 -3.07 283.32 -3.28 L 283.32 -3.28 L 282.67 -3.42 Q 282.46 -3.53 282.21 -3.84 Q 281.96 -4.16 281.71 -4.58 Q 281.46 -5 281.19 -5.48 Q 280.93 -5.96 280.72 -6.41 Q 280.51 -6.87 280.34 -7.22 Q 280.18 -7.58 280.09 -7.77 L 280.09 -7.77 Q 279.9 -8.27 279.62 -8.49 Q 279.34 -8.71 279.08 -8.91 Q 278.83 -9.11 278.64 -9.45 Q 278.45 -9.78 278.45 -10.54 Z M 282.88 -15.22 L 282.88 -15.22 Q 282.88 -14.8 283.04 -14.45 Q 283.2 -14.09 283.41 -13.75 Q 283.62 -13.42 283.8 -13.08 Q 283.98 -12.74 284.02 -12.35 L 284.02 -12.35 Q 284.06 -12.28 284.06 -12.09 L 284.06 -12.09 L 284.02 -11.09 Q 284.02 -10.9 284.06 -10.67 Q 284.1 -10.44 284.27 -10.2 L 284.27 -10.2 Q 284.4 -9.97 284.54 -9.88 Q 284.69 -9.78 284.83 -9.69 Q 284.96 -9.6 285.08 -9.47 Q 285.19 -9.34 285.26 -9.07 L 285.26 -9.07 L 285.28 -8.86 Q 285.28 -8.71 285.27 -8.59 Q 285.26 -8.46 285.26 -8.21 L 285.26 -8.21 Q 285.26 -7.85 285.36 -7.62 L 285.36 -7.62 Q 285.45 -7.39 285.68 -7.33 Q 285.91 -7.26 286.05 -7.08 L 286.05 -7.08 Q 286.37 -6.26 286.68 -5.72 Q 287 -5.19 287.55 -4.72 L 287.55 -4.72 Q 288.28 -4.14 289.05 -3.59 Q 289.81 -3.04 290.63 -2.61 Q 291.45 -2.18 292.35 -1.93 Q 293.26 -1.68 294.26 -1.68 L 294.26 -1.68 Q 294.54 -1.68 294.73 -1.72 Q 294.91 -1.76 295.09 -1.83 Q 295.27 -1.89 295.46 -1.95 Q 295.65 -2.02 295.92 -2.08 L 295.92 -2.08 Q 296.51 -2.16 297.26 -2.28 Q 298 -2.39 298.61 -2.39 L 298.61 -2.39 Q 299.05 -2.73 299.6 -3.02 Q 300.14 -3.32 300.68 -3.64 Q 301.21 -3.97 301.67 -4.37 Q 302.12 -4.77 302.39 -5.31 L 302.39 -5.31 L 303.48 -7.52 Q 303.78 -7.73 303.91 -8.06 Q 304.05 -8.4 304.13 -8.76 Q 304.22 -9.11 304.31 -9.47 Q 304.41 -9.83 304.64 -10.1 L 304.64 -10.1 L 305.08 -13 Q 305.08 -13.33 305.02 -13.63 Q 304.97 -13.92 304.97 -14.34 L 304.97 -14.34 L 305.22 -15.03 Q 305.22 -15.37 305.07 -15.84 Q 304.91 -16.31 304.69 -16.81 Q 304.47 -17.3 304.24 -17.77 Q 304.01 -18.25 303.84 -18.56 L 303.84 -18.56 L 303.63 -18.92 L 303.73 -19.51 Q 303.73 -19.82 303.63 -20.06 Q 303.52 -20.3 303.4 -20.5 Q 303.27 -20.7 303.15 -20.9 Q 303.02 -21.1 302.98 -21.35 L 302.98 -21.35 L 302.79 -22.38 Q 302.6 -22.97 302.01 -23.76 Q 301.42 -24.54 300.69 -25.3 Q 299.95 -26.06 299.2 -26.63 Q 298.44 -27.21 297.92 -27.36 L 297.92 -27.36 Q 297.6 -27.46 297.06 -27.48 Q 296.51 -27.5 296.17 -27.5 L 296.17 -27.5 L 295.63 -28.18 Q 295.48 -28.24 295.11 -28.36 Q 294.75 -28.47 294.34 -28.59 Q 293.93 -28.7 293.53 -28.78 Q 293.13 -28.85 292.92 -28.85 L 292.92 -28.85 Q 292.5 -28.85 291.84 -28.76 Q 291.18 -28.68 290.48 -28.51 Q 289.79 -28.34 289.2 -28.09 Q 288.62 -27.84 288.34 -27.5 L 288.34 -27.5 L 288.24 -27.17 Q 288.07 -27.04 287.89 -26.97 Q 287.71 -26.9 287.56 -26.8 Q 287.4 -26.71 287.28 -26.57 Q 287.17 -26.43 287.1 -26.16 L 287.1 -26.16 Q 286.62 -26.04 286.44 -25.93 Q 286.26 -25.83 286.19 -25.7 Q 286.12 -25.57 286.03 -25.42 Q 285.95 -25.26 285.66 -25.03 L 285.66 -25.03 Q 284.84 -24.48 284.33 -23.62 Q 283.83 -22.76 283.57 -21.75 Q 283.3 -20.74 283.21 -19.68 Q 283.12 -18.62 283.12 -17.72 L 283.12 -17.72 L 283.22 -16.23 Q 283.22 -16.04 283.05 -15.78 Q 282.88 -15.52 282.88 -15.22 Z M 324.04 -2.14 L 324.19 -2.14 L 324.5 -2.23 Q 324.67 -2.31 324.8 -2.49 Q 324.92 -2.67 325.04 -2.88 Q 325.15 -3.09 325.29 -3.31 Q 325.43 -3.53 325.59 -3.7 L 325.59 -3.7 Q 325.59 -3.93 325.52 -4.03 Q 325.45 -4.14 325.45 -4.24 L 325.45 -4.24 L 326.1 -5.04 L 326.69 -10.06 Q 326.96 -10.41 327 -10.81 Q 327.04 -11.21 327.04 -11.55 L 327.04 -11.55 L 326.94 -14.03 Q 326.94 -14.36 326.99 -14.55 Q 327.04 -14.74 327.13 -15.08 L 327.13 -15.08 Q 327.21 -15.26 327.24 -15.55 Q 327.27 -15.83 327.32 -16.06 L 327.32 -16.06 L 327.32 -18.01 Q 327.32 -18.12 327.38 -18.27 Q 327.44 -18.41 327.48 -18.46 L 327.48 -18.46 L 327.48 -21 L 327.57 -22.23 Q 327.59 -22.26 327.63 -22.47 Q 327.67 -22.68 327.67 -22.7 L 327.67 -22.7 Q 327.48 -23.37 327.4 -24.03 Q 327.32 -24.69 326.94 -25.24 L 326.94 -25.24 Q 326.9 -25.24 326.87 -25.3 L 326.87 -25.3 Q 326.85 -25.32 326.83 -25.36 L 326.83 -25.36 L 325.99 -25.72 L 324.9 -26.81 Q 324.71 -26.96 324.42 -27.01 Q 324.12 -27.06 323.82 -27.1 Q 323.52 -27.13 323.22 -27.18 Q 322.93 -27.23 322.74 -27.38 L 322.74 -27.38 L 322.05 -27.92 Q 321.94 -28.03 321.78 -28.05 Q 321.63 -28.07 321.39 -28.07 L 321.39 -28.07 L 320.87 -28.05 Q 320.58 -28.16 320.36 -28.41 Q 320.13 -28.66 320.01 -29.02 L 320.01 -29.02 Q 320.01 -29.39 320.31 -29.61 Q 320.62 -29.84 321.04 -29.93 Q 321.46 -30.02 321.89 -30.05 Q 322.32 -30.07 322.55 -30.07 L 322.55 -30.07 Q 322.99 -29.92 323.4 -29.87 Q 323.81 -29.81 324.24 -29.8 Q 324.67 -29.79 325.1 -29.78 Q 325.53 -29.77 325.99 -29.71 L 325.99 -29.71 Q 326.01 -29.71 326.18 -29.66 Q 326.35 -29.6 326.55 -29.55 Q 326.75 -29.5 326.94 -29.45 Q 327.13 -29.39 327.17 -29.39 L 327.17 -29.39 L 327.44 -29.39 L 328.97 -29.86 Q 329.14 -29.86 329.36 -29.76 Q 329.58 -29.67 329.8 -29.53 Q 330.02 -29.39 330.22 -29.25 Q 330.42 -29.1 330.55 -29.02 L 330.55 -29.02 L 330.67 -28.85 Q 330.88 -28.47 331.23 -27.96 Q 331.58 -27.44 331.97 -26.93 Q 332.35 -26.41 332.75 -25.95 Q 333.15 -25.49 333.49 -25.24 L 333.49 -25.24 L 334.5 -24.67 Q 334.58 -24.63 334.71 -24.46 Q 334.83 -24.29 334.83 -24.27 L 334.83 -24.27 L 335 -23.73 Q 335.13 -23.49 335.22 -23.38 Q 335.31 -23.26 335.41 -23.18 Q 335.5 -23.1 335.63 -23.02 Q 335.76 -22.95 335.94 -22.8 L 335.94 -22.8 Q 336.34 -22.4 336.63 -22.13 Q 336.91 -21.86 337.11 -21.58 Q 337.31 -21.31 337.48 -20.98 Q 337.65 -20.64 337.83 -20.09 L 337.83 -20.09 Q 337.86 -20.09 338.14 -19.85 Q 338.42 -19.61 338.75 -19.33 Q 339.07 -19.04 339.34 -18.8 Q 339.6 -18.56 339.58 -18.56 L 339.58 -18.56 L 339.81 -18.01 Q 339.81 -17.95 339.87 -17.84 Q 339.93 -17.72 340.01 -17.59 Q 340.08 -17.47 340.16 -17.36 Q 340.25 -17.26 340.31 -17.22 L 340.31 -17.22 L 340.77 -17.01 Q 341.21 -16.61 341.7 -16.14 Q 342.18 -15.66 342.61 -15.15 Q 343.04 -14.63 343.39 -14.11 Q 343.73 -13.58 343.9 -13.08 L 343.9 -13.08 L 346 -11.09 Q 346.32 -10.18 347.07 -9.57 Q 347.83 -8.97 348.73 -8.97 L 348.73 -8.97 L 348.73 -9.81 Q 348.73 -9.99 348.75 -10.23 Q 348.77 -10.46 348.82 -10.65 L 348.82 -10.65 Q 348.82 -10.67 348.87 -10.77 Q 348.92 -10.88 348.97 -11.02 Q 349.03 -11.17 349.08 -11.31 Q 349.13 -11.44 349.13 -11.51 L 349.13 -11.51 Q 349.13 -11.74 349.03 -11.83 Q 348.92 -11.93 348.92 -12.03 L 348.92 -12.03 L 349.13 -13.23 Q 349.13 -13.79 349.05 -14.51 Q 348.96 -15.22 348.92 -15.77 L 348.92 -15.77 Q 348.92 -15.81 348.91 -15.94 Q 348.9 -16.06 348.88 -16.21 Q 348.86 -16.36 348.84 -16.48 Q 348.82 -16.61 348.82 -16.67 L 348.82 -16.67 L 348.82 -16.71 Q 348.82 -16.9 348.86 -17.03 L 348.86 -17.03 Q 348.88 -17.09 348.92 -17.11 L 348.92 -17.11 L 349.11 -17.51 L 349.47 -19.44 Q 349.32 -19.67 349.28 -19.89 Q 349.24 -20.11 349.24 -20.3 L 349.24 -20.3 L 349.36 -22.3 L 349.24 -24.38 Q 349.24 -24.61 349.28 -24.79 Q 349.32 -24.96 349.57 -25.07 L 349.57 -25.07 L 349.57 -25.62 Q 349.57 -25.87 349.45 -26.18 Q 349.32 -26.5 349.11 -26.8 Q 348.9 -27.11 348.65 -27.35 Q 348.4 -27.59 348.12 -27.65 L 348.12 -27.65 Q 348.08 -27.65 347.95 -27.67 Q 347.83 -27.69 347.68 -27.73 Q 347.53 -27.76 347.4 -27.78 Q 347.26 -27.8 347.22 -27.82 L 347.22 -27.82 L 346.74 -28.16 Q 346.69 -28.18 346.45 -28.22 Q 346.21 -28.26 346.13 -28.26 L 346.13 -28.26 Q 345.71 -28.43 345.39 -28.59 Q 345.08 -28.74 344.83 -28.93 Q 344.57 -29.12 344.36 -29.37 Q 344.15 -29.63 343.9 -29.96 L 343.9 -29.96 Q 343.8 -30.11 343.68 -30.12 Q 343.57 -30.13 343.46 -30.36 L 343.46 -30.36 Q 343.5 -30.49 343.72 -30.56 Q 343.94 -30.63 344.21 -30.69 Q 344.47 -30.74 344.7 -30.75 Q 344.93 -30.76 344.99 -30.76 L 344.99 -30.76 Q 345.1 -30.76 345.1 -30.74 L 345.1 -30.74 Q 345.18 -30.74 345.4 -30.7 Q 345.62 -30.65 345.73 -30.61 L 345.73 -30.61 Q 347.05 -30.49 348.2 -30.34 Q 349.34 -30.19 350.62 -30.19 L 350.62 -30.19 L 353.81 -30.51 Q 354.09 -30.51 354.39 -30.49 Q 354.69 -30.47 354.95 -30.37 Q 355.2 -30.28 355.37 -30.08 Q 355.53 -29.88 355.53 -29.52 L 355.53 -29.52 Q 355.53 -28.93 355.15 -28.66 Q 354.76 -28.39 354.21 -28.24 Q 353.67 -28.09 353.1 -27.99 Q 352.53 -27.88 352.15 -27.65 L 352.15 -27.65 L 351.92 -26.96 L 350.91 -26.01 Q 350.87 -25.97 350.84 -25.84 Q 350.81 -25.7 350.81 -25.62 L 350.81 -25.62 Q 350.83 -25.51 350.89 -25.34 Q 350.96 -25.17 351.04 -25.01 Q 351.12 -24.84 351.21 -24.67 Q 351.29 -24.5 351.36 -24.38 L 351.36 -24.38 L 351.36 -24.27 Q 351.36 -24.12 351.31 -23.83 Q 351.27 -23.54 351.21 -23.22 Q 351.15 -22.91 351.1 -22.65 Q 351.06 -22.4 351.06 -22.34 L 351.06 -22.34 Q 351.02 -22.3 351.02 -22.09 L 351.02 -22.09 Q 351.02 -21.98 351.02 -21.88 Q 351.02 -21.77 351.06 -21.73 L 351.06 -21.73 L 351.06 -20.45 Q 351.06 -20.01 350.99 -19.58 Q 350.91 -19.15 350.7 -18.85 L 350.7 -18.85 L 350.7 -16.27 Q 350.7 -16 350.69 -15.66 Q 350.68 -15.33 350.64 -15 Q 350.6 -14.68 350.52 -14.36 Q 350.43 -14.05 350.26 -13.84 L 350.26 -13.84 L 350.26 -13.25 Q 350.26 -12.41 350.18 -11.61 Q 350.1 -10.81 350.01 -9.95 L 350.01 -9.95 Q 349.97 -9.51 349.84 -9.13 Q 349.72 -8.76 349.72 -8.31 L 349.72 -8.31 Q 349.72 -7.87 349.72 -7.35 Q 349.72 -6.82 349.75 -6.27 Q 349.78 -5.71 349.84 -5.19 Q 349.91 -4.66 350.01 -4.24 L 350.01 -4.24 Q 350.14 -3.82 350.22 -3.5 Q 350.31 -3.17 350.36 -2.83 Q 350.41 -2.5 350.44 -2.14 Q 350.47 -1.78 350.47 -1.3 L 350.47 -1.3 L 350.47 -0.25 Q 350.26 0.1 349.91 0.1 L 349.91 0.1 Q 349.53 0.1 349.08 -0.18 Q 348.63 -0.46 348.15 -0.9 Q 347.68 -1.34 347.21 -1.9 Q 346.74 -2.46 346.27 -3 Q 345.81 -3.55 345.39 -4.03 Q 344.97 -4.51 344.64 -4.83 L 344.64 -4.83 Q 344.6 -4.91 344.52 -5.21 Q 344.45 -5.5 344.34 -5.58 L 344.34 -5.58 Q 344.01 -5.94 343.63 -6.44 Q 343.25 -6.93 342.89 -7.26 L 342.89 -7.26 Q 342.45 -7.6 342.1 -7.96 Q 341.74 -8.31 341.42 -8.7 Q 341.11 -9.09 340.81 -9.49 Q 340.5 -9.89 340.16 -10.31 L 340.16 -10.31 Q 340.04 -10.48 339.87 -10.59 Q 339.7 -10.71 339.52 -10.8 Q 339.35 -10.9 339.21 -11.01 Q 339.07 -11.13 339.01 -11.3 L 339.01 -11.3 Q 338.28 -12.3 337.54 -13.11 Q 336.81 -13.92 335.84 -14.53 L 335.84 -14.53 Q 335.67 -14.61 335.58 -14.75 Q 335.48 -14.89 335.39 -15.02 Q 335.29 -15.16 335.17 -15.3 Q 335.04 -15.43 334.83 -15.54 L 334.83 -15.54 Q 334.79 -15.6 334.65 -15.82 Q 334.52 -16.04 334.35 -16.3 Q 334.18 -16.57 334.03 -16.81 Q 333.89 -17.05 333.85 -17.11 L 333.85 -17.11 L 333.59 -17.32 Q 333.49 -17.76 333.33 -18.07 Q 333.17 -18.37 332.95 -18.62 Q 332.73 -18.88 332.45 -19.15 Q 332.17 -19.42 331.81 -19.8 L 331.81 -19.8 L 331.62 -20.09 Q 331.51 -20.41 331.3 -20.62 Q 331.09 -20.83 330.84 -21.02 Q 330.59 -21.21 330.33 -21.38 Q 330.07 -21.56 329.88 -21.79 L 329.88 -21.79 Q 329.73 -21.96 329.67 -22.12 Q 329.6 -22.28 329.54 -22.42 Q 329.48 -22.57 329.35 -22.67 Q 329.23 -22.76 328.93 -22.8 L 328.93 -22.8 Q 328.81 -22.8 328.54 -22.62 Q 328.28 -22.44 328.28 -22.3 L 328.28 -22.3 L 328.39 -21.69 Q 328.39 -21.46 328.28 -21.12 Q 328.18 -20.79 328.18 -20.45 L 328.18 -20.45 L 328.39 -19.8 L 328.18 -19.21 Q 328.18 -18.92 328.26 -18.48 Q 328.34 -18.04 328.53 -17.8 L 328.53 -17.8 Q 328.64 -17.47 328.68 -17.11 Q 328.72 -16.75 328.72 -16.33 L 328.72 -16.33 Q 328.72 -15.87 328.68 -15.46 Q 328.64 -15.05 328.53 -14.68 L 328.53 -14.68 Q 328.68 -14.49 328.68 -14.34 L 328.68 -14.34 Q 328.68 -13.98 328.62 -13.69 Q 328.55 -13.4 328.48 -13.13 Q 328.41 -12.87 328.34 -12.62 Q 328.28 -12.37 328.28 -12.09 L 328.28 -12.09 L 328.28 -11.4 Q 328.28 -11.13 328.29 -10.81 Q 328.3 -10.5 328.33 -10.19 Q 328.37 -9.89 328.42 -9.64 Q 328.47 -9.39 328.53 -9.26 L 328.53 -9.26 Q 328.43 -8.99 328.37 -8.8 Q 328.3 -8.61 328.26 -8.44 Q 328.22 -8.27 328.2 -8.1 Q 328.18 -7.94 328.18 -7.71 L 328.18 -7.71 Q 328.18 -7.08 328.3 -6.41 Q 328.43 -5.75 328.69 -5.13 Q 328.95 -4.51 329.35 -3.97 Q 329.75 -3.42 330.32 -3.02 L 330.32 -3.02 Q 330.49 -2.92 330.69 -2.88 Q 330.88 -2.83 331.08 -2.79 Q 331.28 -2.75 331.47 -2.67 Q 331.66 -2.58 331.81 -2.39 L 331.81 -2.39 Q 332.14 -2.39 332.52 -2.36 Q 332.9 -2.33 333.25 -2.27 Q 333.59 -2.2 333.89 -2.09 Q 334.18 -1.97 334.35 -1.81 L 334.35 -1.81 Q 334.52 -1.43 334.63 -1.11 Q 334.75 -0.8 334.75 -0.25 L 334.75 -0.25 Q 334.39 0.21 334.02 0.47 Q 333.66 0.73 333.05 0.73 L 333.05 0.73 L 332.65 0.73 L 331.81 0.29 Q 331.18 0.19 330.27 0.13 Q 329.35 0.06 328.51 0.06 L 328.51 0.06 L 327.08 0.06 Q 326.85 0.06 326.62 0.08 Q 326.39 0.1 326.1 0.21 L 326.1 0.21 L 322.74 0.21 Q 322.68 0 322.5 -0.04 Q 322.32 -0.08 322.13 -0.1 Q 321.94 -0.13 321.8 -0.17 Q 321.67 -0.21 321.67 -0.4 L 321.67 -0.4 Q 321.67 -0.88 321.89 -1.19 Q 322.11 -1.49 322.45 -1.68 Q 322.8 -1.87 323.22 -1.96 Q 323.64 -2.06 324.04 -2.14 L 324.04 -2.14 Z" stroke-linecap="round" />
</g>
</g>
</g>
<g transform="matrix(1.9211538461538462 0 0 1.9211538461538462 642.3107315767729 425.1228445770069)" id="tagline-9cf610d0-ef43-403c-a7f2-67f87634d4ff-logo"  >
<g style=""  paint-order="stroke"   >
		<g transform="matrix(1 0 0 1 0 0)" id="tagline-9cf610d0-ef43-403c-a7f2-67f87634d4ff-logo-path-0"  >
<linearGradient id="SVGID_173451" gradientUnits="userSpaceOnUse" gradientTransform="matrix(1 0 0 1 1.42 -24.51)"  x1="0" y1="0" x2="0" y2="40">
<stop offset="0%" style="stop-color:rgb(180,236,81);stop-opacity: 1"/>
<stop offset="100%" style="stop-color:rgb(66,147,33);stop-opacity: 1"/>
</linearGradient>
<path style="stroke: none; stroke-width: 0; stroke-dasharray: none; stroke-linecap: butt; stroke-dashoffset: 0; stroke-linejoin: miter; stroke-miterlimit: 4; fill: url(#SVGID_173451); fill-rule: nonzero; opacity: 1;"  paint-order="stroke"  transform=" translate(-14.415000000000001, 11.945)" d="M 20.1 -0.56 L 20.01 -0.62 Q 18.97 -1.47 18.18 -2.55 Q 17.4 -3.62 16.85 -4.82 L 16.85 -4.82 L 16.61 -5.43 Q 16.53 -5.61 16.37 -5.78 Q 16.22 -5.96 16.06 -6.14 Q 15.89 -6.32 15.74 -6.49 Q 15.59 -6.65 15.52 -6.8 L 15.52 -6.8 L 15.14 -7.42 L 13.86 -8.82 Q 13.83 -9.31 13.39 -9.78 Q 12.95 -10.25 12.36 -10.63 Q 11.77 -11.01 11.15 -11.23 Q 10.53 -11.45 10.12 -11.45 L 10.12 -11.45 Q 9.95 -11.45 9.69 -11.4 Q 9.43 -11.35 9.19 -11.24 Q 8.94 -11.13 8.76 -10.95 Q 8.58 -10.78 8.58 -10.56 L 8.58 -10.56 L 8.7 -9.91 Q 8.7 -9.67 8.64 -9.57 Q 8.58 -9.47 8.58 -9.31 L 8.58 -9.31 Q 8.58 -9.04 8.6 -8.88 Q 8.61 -8.72 8.7 -8.43 L 8.7 -8.43 L 8.54 -5.71 L 8.58 -5.35 Q 8.6 -5.06 8.6 -4.79 Q 8.6 -4.51 8.6 -4.22 L 8.6 -4.22 Q 8.6 -3.93 8.6 -3.68 Q 8.6 -3.44 8.58 -3.16 L 8.58 -3.16 Q 8.58 -3.01 8.72 -2.8 Q 8.85 -2.6 9.04 -2.51 L 9.04 -2.51 L 9.84 -1.98 Q 10.08 -1.81 10.46 -1.74 Q 10.83 -1.67 11.25 -1.64 Q 11.67 -1.61 12.09 -1.58 Q 12.51 -1.56 12.84 -1.46 Q 13.18 -1.37 13.39 -1.19 Q 13.6 -1.01 13.6 -0.68 L 13.6 -0.68 Q 13.6 -0.43 13.41 -0.21 Q 13.21 0 12.95 0.15 Q 12.68 0.31 12.39 0.39 Q 12.1 0.48 11.89 0.48 L 11.89 0.48 Q 11.62 0.48 11.39 0.42 Q 11.16 0.36 10.93 0.28 Q 10.7 0.21 10.45 0.13 Q 10.2 0.05 9.93 0 L 9.93 0 Q 9.31 -0.12 8.71 -0.21 Q 8.1 -0.31 7.33 -0.53 L 7.33 -0.53 Q 7.14 -0.53 6.93 -0.47 Q 6.72 -0.41 6.44 -0.41 L 6.44 -0.41 L 5.23 -0.53 Q 5.04 -0.53 4.83 -0.35 Q 4.61 -0.17 4.38 -0.17 L 4.38 -0.17 L 1.59 -0.27 Q 1.42 -0.44 1.42 -0.62 L 1.42 -0.62 Q 1.42 -1.03 1.82 -1.26 Q 2.22 -1.5 2.74 -1.66 Q 3.26 -1.81 3.75 -1.91 Q 4.24 -2.02 4.41 -2.15 L 4.41 -2.15 Q 4.6 -2.43 4.6 -2.78 Q 4.6 -3.13 4.67 -3.37 L 4.67 -3.37 Q 4.75 -3.4 4.84 -3.5 Q 4.94 -3.61 4.97 -3.61 L 4.97 -3.61 Q 5.13 -3.98 5.17 -4.49 Q 5.21 -5.01 5.21 -5.5 L 5.21 -5.5 L 5.21 -6.24 Q 5.21 -6.6 5.14 -6.86 Q 5.06 -7.13 5.06 -7.42 L 5.06 -7.42 L 5.42 -10.49 L 5.14 -12.15 L 5.06 -12.54 L 5.06 -12.63 Q 5.06 -12.68 5.07 -12.81 Q 5.08 -12.94 5.08 -13.08 Q 5.09 -13.23 5.11 -13.36 Q 5.13 -13.48 5.14 -13.54 L 5.14 -13.54 Q 5.35 -13.62 5.38 -13.67 Q 5.42 -13.72 5.42 -13.84 L 5.42 -13.84 L 5.21 -14.9 L 5.42 -15.83 Q 5.42 -15.84 5.46 -16.01 Q 5.5 -16.18 5.5 -16.25 L 5.5 -16.25 L 5.42 -16.7 L 5.42 -17.21 L 5.5 -18.3 L 5.21 -20.9 L 5.21 -21.26 Q 4.84 -21.72 4.48 -22.05 Q 4.12 -22.37 3.71 -22.6 Q 3.3 -22.83 2.83 -23 Q 2.36 -23.17 1.74 -23.33 L 1.74 -23.33 Q 1.5 -23.38 1.5 -23.62 L 1.5 -23.62 Q 1.5 -23.86 1.82 -24.03 Q 2.14 -24.2 2.55 -24.3 Q 2.96 -24.4 3.35 -24.46 Q 3.74 -24.51 3.9 -24.51 L 3.9 -24.51 L 4.9 -24.42 L 5.98 -24.51 L 7.49 -24.18 Q 7.95 -24.18 8.39 -24.3 Q 8.84 -24.42 9.37 -24.42 L 9.37 -24.42 L 10.78 -24.27 L 12.24 -24.42 Q 13.09 -24.42 13.89 -24.26 Q 14.7 -24.1 15.52 -23.86 L 15.52 -23.86 Q 15.91 -23.72 16.38 -23.64 Q 16.85 -23.57 17.21 -23.33 L 17.21 -23.33 L 17.59 -23.05 Q 18.27 -22.64 18.82 -22.28 Q 19.38 -21.91 19.76 -21.46 Q 20.15 -21 20.38 -20.4 Q 20.61 -19.79 20.66 -18.88 L 20.66 -18.88 Q 20.7 -18.44 20.78 -18.07 Q 20.87 -17.71 20.87 -17.26 L 20.87 -17.26 Q 20.87 -17.07 20.82 -16.97 Q 20.78 -16.87 20.71 -16.78 Q 20.64 -16.7 20.57 -16.61 Q 20.49 -16.53 20.42 -16.37 L 20.42 -16.37 Q 20.34 -16.2 20.3 -15.97 Q 20.27 -15.74 20.23 -15.51 Q 20.2 -15.28 20.15 -15.06 Q 20.1 -14.85 20.01 -14.73 L 20.01 -14.73 Q 19.72 -14.32 19.32 -14.06 Q 18.92 -13.81 18.56 -13.45 L 18.56 -13.45 Q 18.41 -13.19 18.08 -13.03 Q 17.76 -12.87 17.43 -12.71 Q 17.11 -12.56 16.86 -12.34 Q 16.61 -12.12 16.61 -11.74 L 16.61 -11.74 Q 16.61 -11.55 16.68 -11.47 Q 16.75 -11.38 16.83 -11.31 Q 16.92 -11.25 17.02 -11.18 Q 17.12 -11.11 17.21 -10.97 L 17.21 -10.97 Q 17.23 -10.92 17.36 -10.72 Q 17.5 -10.51 17.66 -10.28 Q 17.82 -10.05 17.96 -9.85 Q 18.1 -9.66 18.13 -9.64 L 18.13 -9.64 Q 18.76 -8.82 19.27 -7.96 Q 19.77 -7.11 20.42 -6.36 L 20.42 -6.36 Q 20.82 -5.91 21.2 -5.47 Q 21.58 -5.02 22.08 -4.73 L 22.08 -4.73 Q 22.22 -4.67 22.32 -4.48 Q 22.42 -4.29 22.52 -4.06 Q 22.61 -3.83 22.7 -3.61 Q 22.8 -3.38 22.92 -3.25 L 22.92 -3.25 Q 23.57 -2.79 24.12 -2.43 Q 24.68 -2.07 25.28 -1.62 L 25.28 -1.62 Q 25.55 -1.44 25.92 -1.3 Q 26.28 -1.16 26.62 -0.99 Q 26.95 -0.82 27.18 -0.57 Q 27.41 -0.32 27.41 0.05 L 27.41 0.05 Q 27.41 0.41 27.11 0.51 Q 26.81 0.62 26.46 0.62 L 26.46 0.62 L 23.94 0.62 Q 23.41 0.38 22.9 0.37 Q 22.39 0.36 21.74 0.29 L 21.74 0.29 Q 21.6 0.27 21.39 0.18 Q 21.17 0.09 20.94 -0.04 Q 20.71 -0.17 20.49 -0.32 Q 20.27 -0.46 20.1 -0.56 L 20.1 -0.56 Z M 8.7 -15.38 L 8.34 -13.84 Q 8.34 -13.45 8.49 -13.16 Q 8.63 -12.87 8.89 -12.67 Q 9.14 -12.48 9.48 -12.37 Q 9.81 -12.27 10.17 -12.27 L 10.17 -12.27 L 10.78 -12.27 Q 10.83 -12.54 11.29 -12.74 Q 11.74 -12.94 12.3 -13.08 Q 12.85 -13.23 13.39 -13.33 Q 13.93 -13.43 14.17 -13.54 L 14.17 -13.54 Q 14.51 -13.69 14.85 -14.01 Q 15.19 -14.32 15.47 -14.63 L 15.47 -14.63 L 16.03 -15.71 Q 16.29 -16.15 16.45 -16.63 Q 16.61 -17.11 16.61 -17.65 L 16.61 -17.65 Q 16.61 -17.79 16.55 -17.92 Q 16.49 -18.05 16.42 -18.18 Q 16.35 -18.3 16.3 -18.45 Q 16.24 -18.59 16.24 -18.78 L 16.24 -18.78 Q 16.34 -19.24 16.35 -19.35 Q 16.37 -19.45 16.37 -19.52 L 16.37 -19.52 L 16.37 -19.69 Q 16.37 -19.76 16.21 -19.89 Q 16.05 -20.03 16.03 -20.1 L 16.03 -20.1 Q 15.62 -20.85 15.09 -21.35 Q 14.56 -21.86 13.92 -22.16 Q 13.28 -22.46 12.54 -22.58 Q 11.79 -22.71 10.94 -22.71 L 10.94 -22.71 Q 10.87 -22.71 10.65 -22.68 Q 10.42 -22.64 10.17 -22.6 Q 9.91 -22.56 9.7 -22.52 Q 9.48 -22.47 9.43 -22.44 L 9.43 -22.44 Q 9.4 -22.4 9.34 -22.31 Q 9.28 -22.22 9.22 -22.11 Q 9.16 -22.01 9.11 -21.92 Q 9.06 -21.82 9.04 -21.79 L 9.04 -21.79 L 9.04 -21.31 Q 9.04 -20.39 8.87 -19.51 Q 8.7 -18.63 8.46 -17.71 L 8.46 -17.71 L 8.22 -17.36 L 8.58 -16.92 Q 8.6 -16.83 8.63 -16.57 Q 8.66 -16.3 8.7 -16.15 L 8.7 -16.15 L 8.7 -15.91 Q 8.66 -15.91 8.62 -15.84 Q 8.58 -15.77 8.58 -15.71 L 8.58 -15.71 Q 8.58 -15.67 8.62 -15.53 Q 8.66 -15.4 8.7 -15.38 L 8.7 -15.38 Z" stroke-linecap="round" />
</g>
</g>
</g>
</svg>